<svg width="364" height="246" viewBox="0 0 364 246" fill="none" xmlns="http://www.w3.org/2000/svg">
<g clip-path="url(#clip0_1_2890)">
<rect width="364" height="246" fill="#222222"/>
<g opacity="0.6" clip-path="url(#clip1_1_2890)">
<path d="M80.1457 47.84C86.2453 46.2056 91.8267 51.7871 90.1924 57.8867L65.7364 149.158C64.102 155.257 56.4777 157.3 52.0125 152.835L-14.8026 86.02C-19.2678 81.5548 -17.2249 73.9304 -11.1253 72.296L80.1457 47.84Z" stroke="url(#paint0_linear_1_2890)" stroke-width="1.13371"/>
</g>
<g opacity="0.6" clip-path="url(#clip2_1_2890)">
<path d="M-11.3635 51.8803C-13.9946 50.3612 -13.9946 46.5636 -11.3635 45.0446L28.0064 22.3143C30.6375 20.7953 33.9262 22.6941 33.9262 25.7322L33.9262 71.1926C33.9262 74.2307 30.6375 76.1295 28.0064 74.6105L-11.3635 51.8803Z" stroke="url(#paint1_linear_1_2890)" stroke-width="1.13371"/>
</g>
<g opacity="0.6" clip-path="url(#clip3_1_2890)">
<path d="M331.66 165.729C329.029 164.21 329.029 160.413 331.66 158.894L371.03 136.163C373.661 134.644 376.949 136.543 376.949 139.581L376.949 185.042C376.949 188.08 373.661 189.979 371.03 188.46L331.66 165.729Z" stroke="url(#paint2_linear_1_2890)" stroke-width="1.13371"/>
</g>
<g opacity="0.6" clip-path="url(#clip4_1_2890)">
<path d="M326.859 116.442C325.34 113.811 327.239 110.522 330.277 110.522L375.738 110.522C378.776 110.522 380.674 113.811 379.155 116.442L356.425 155.812C354.906 158.443 351.109 158.443 349.589 155.812L326.859 116.442Z" stroke="url(#paint3_linear_1_2890)" stroke-width="1.13371"/>
</g>
<path opacity="0.8" d="M209.888 -46.4097C211.612 -52.8444 219.655 -54.9996 224.366 -50.2891L291.181 16.526C295.891 21.2366 293.736 29.2798 287.302 31.004L196.03 55.46C189.596 57.1842 183.708 51.296 185.432 44.8613L209.888 -46.4097Z" fill="url(#paint4_linear_1_2890)" fill-opacity="0.6"/>
<path opacity="0.8" d="M71.1224 156.119C77.601 154.568 83.3291 160.612 81.4329 166.998L54.5369 257.58C52.6406 263.967 44.5424 265.905 39.96 261.07L-25.0383 192.486C-29.6208 187.651 -27.2505 179.668 -20.7719 178.117L71.1224 156.119Z" fill="url(#paint5_linear_1_2890)" fill-opacity="0.6"/>
<g opacity="0.6" clip-path="url(#clip5_1_2890)">
<path d="M320.656 19.6346C323.599 20.4231 324.585 24.1016 322.43 26.2559L290.195 58.4916C288.04 60.6458 284.362 59.6602 283.573 56.7174L271.774 12.6827C270.986 9.73987 273.679 7.04704 276.622 7.83555L320.656 19.6346Z" stroke="url(#paint6_linear_1_2890)" stroke-width="1.13371"/>
</g>
<path opacity="0.8" d="M54.226 -0.437677C51.9176 -2.74608 52.9738 -6.68778 56.1271 -7.53271L100.855 -19.5175C104.008 -20.3625 106.894 -17.4769 106.049 -14.3236L94.0641 30.4043C93.2191 33.5576 89.2774 34.6138 86.969 32.3054L54.226 -0.437677Z" fill="url(#paint7_linear_1_2890)" fill-opacity="0.6"/>
<path opacity="0.8" d="M132.459 248.635C129.392 247.516 128.687 243.497 131.189 241.401L166.686 211.665C169.189 209.569 173.022 210.968 173.586 214.183L181.59 259.792C182.154 263.008 179.026 265.628 175.959 264.509L132.459 248.635Z" fill="url(#paint8_linear_1_2890)" fill-opacity="0.6"/>
<g clip-path="url(#clip6_1_2890)">
<path d="M228.959 230.981L224.559 217.949C224.454 217.638 224.164 217.428 223.838 217.428H221.447V213.23C221.447 212.986 221.12 212.91 221.014 213.13L218.948 217.428H216.525C216.186 217.428 215.888 217.654 215.794 217.982L212.031 231.013C211.889 231.505 212.255 231.997 212.763 231.997H228.237C228.76 231.997 229.127 231.479 228.959 230.981Z" fill="#FF7345"/>
<path d="M228.195 231.818H220.519C220.172 231.818 219.866 231.586 219.77 231.25L216.125 218.507C215.999 218.069 216.325 217.632 216.778 217.632H223.847C224.081 217.632 224.289 217.782 224.365 218.004L228.79 230.978C228.93 231.39 228.627 231.818 228.195 231.818Z" fill="white"/>
<path d="M220.767 223.674C220.599 223.674 220.464 223.537 220.464 223.368V221.073C220.464 220.904 220.599 220.768 220.767 220.768C220.935 220.768 221.071 220.904 221.071 221.073V223.368C221.071 223.537 220.935 223.674 220.767 223.674Z" fill="#FF7345"/>
<path d="M223.132 223.674C222.964 223.674 222.828 223.537 222.828 223.368V221.073C222.828 220.904 222.964 220.768 223.132 220.768C223.299 220.768 223.435 220.904 223.435 221.073V223.368C223.435 223.537 223.299 223.674 223.132 223.674Z" fill="#FF7345"/>
<path d="M227.519 227.022H218.476V227.196H227.519V227.022Z" fill="#FF7345"/>
<path d="M223.776 230.386C223.929 230.386 224.053 230.261 224.053 230.107C224.053 229.952 223.929 229.827 223.776 229.827C223.623 229.827 223.499 229.952 223.499 230.107C223.499 230.261 223.623 230.386 223.776 230.386Z" fill="#FF7345"/>
<path d="M224.739 230.386C224.892 230.386 225.016 230.261 225.016 230.107C225.016 229.952 224.892 229.827 224.739 229.827C224.586 229.827 224.461 229.952 224.461 230.107C224.461 230.261 224.586 230.386 224.739 230.386Z" fill="#FF7345"/>
</g>
<path d="M311.625 227.051H313.18C313.201 227.166 313.245 227.271 313.312 227.366C313.382 227.461 313.466 227.541 313.564 227.608C313.665 227.671 313.779 227.72 313.905 227.755C314.035 227.79 314.168 227.807 314.305 227.807C314.518 227.807 314.711 227.76 314.883 227.665C315.058 227.567 315.198 227.429 315.303 227.25C315.408 227.068 315.461 226.856 315.461 226.615C315.461 226.387 315.41 226.187 315.308 226.016C315.21 225.844 315.073 225.711 314.898 225.616C314.723 225.522 314.529 225.474 314.315 225.474C314.126 225.474 313.963 225.506 313.826 225.569C313.69 225.632 313.576 225.709 313.485 225.8C313.397 225.888 313.333 225.972 313.291 226.052H311.772L312.056 221.828H316.68V223.184H313.406L313.27 224.823H313.354C313.403 224.746 313.488 224.66 313.611 224.565C313.734 224.467 313.893 224.383 314.089 224.313C314.289 224.243 314.525 224.208 314.799 224.208C315.208 224.208 315.588 224.299 315.939 224.481C316.289 224.66 316.571 224.923 316.785 225.27C317.002 225.616 317.11 226.045 317.11 226.557C317.11 227.082 316.991 227.538 316.753 227.923C316.515 228.308 316.184 228.606 315.76 228.816C315.34 229.026 314.851 229.131 314.294 229.131C313.891 229.131 313.527 229.079 313.201 228.974C312.879 228.869 312.601 228.722 312.366 228.532C312.135 228.34 311.954 228.117 311.825 227.865C311.699 227.613 311.632 227.341 311.625 227.051Z" fill="#FF7345"/>
<path d="M306.739 224.066H305.115V223.972C305.115 223.695 305.166 223.424 305.267 223.157C305.372 222.888 305.528 222.644 305.735 222.427C305.945 222.206 306.211 222.031 306.534 221.902C306.859 221.769 307.245 221.702 307.69 221.702C308.211 221.702 308.665 221.791 309.05 221.97C309.439 222.149 309.739 222.392 309.949 222.7C310.162 223.005 310.269 223.35 310.269 223.735C310.269 224.082 310.203 224.389 310.07 224.655C309.94 224.918 309.777 225.157 309.581 225.375C309.385 225.592 309.189 225.805 308.993 226.016L307.548 227.555V227.634H310.385V229H305.215V227.939L307.789 225.275C307.915 225.145 308.038 225.01 308.157 224.87C308.28 224.73 308.38 224.581 308.457 224.424C308.537 224.262 308.577 224.091 308.577 223.909C308.577 223.744 308.537 223.599 308.457 223.473C308.376 223.343 308.266 223.24 308.126 223.163C307.989 223.086 307.831 223.047 307.653 223.047C307.464 223.047 307.299 223.089 307.159 223.173C307.022 223.257 306.917 223.369 306.844 223.509C306.774 223.646 306.739 223.795 306.739 223.956C306.739 223.977 306.739 223.998 306.739 224.019C306.739 224.037 306.739 224.052 306.739 224.066Z" fill="#FF7345"/>
<path d="M299.929 225.238V225.58C299.929 226.035 299.973 226.425 300.061 226.751C300.152 227.073 300.279 227.322 300.444 227.497C300.612 227.669 300.81 227.755 301.038 227.755C301.272 227.755 301.472 227.669 301.637 227.497C301.805 227.322 301.933 227.073 302.02 226.751C302.108 226.425 302.152 226.035 302.152 225.58V225.238C302.152 224.786 302.108 224.399 302.02 224.077C301.933 223.751 301.805 223.504 301.637 223.336C301.472 223.164 301.272 223.079 301.038 223.079C300.807 223.079 300.607 223.164 300.439 223.336C300.274 223.504 300.148 223.749 300.061 224.072C299.973 224.394 299.929 224.783 299.929 225.238ZM298.201 225.585V225.233C298.201 224.522 298.316 223.902 298.547 223.373C298.779 222.84 299.108 222.429 299.535 222.138C299.962 221.847 300.47 221.702 301.059 221.702C301.651 221.702 302.157 221.846 302.577 222.133C302.998 222.42 303.32 222.828 303.544 223.357C303.768 223.886 303.88 224.511 303.88 225.233V225.585C303.88 226.121 303.814 226.606 303.681 227.04C303.548 227.475 303.357 227.848 303.108 228.159C302.859 228.471 302.56 228.711 302.209 228.879C301.859 229.047 301.463 229.131 301.022 229.131C300.437 229.131 299.934 228.986 299.514 228.695C299.094 228.405 298.77 227.995 298.542 227.466C298.314 226.933 298.201 226.306 298.201 225.585Z" fill="#FF7345"/>
<path d="M293.404 224.066H291.78V223.972C291.78 223.695 291.831 223.424 291.932 223.157C292.037 222.888 292.193 222.644 292.4 222.427C292.61 222.206 292.876 222.031 293.199 221.902C293.524 221.769 293.91 221.702 294.355 221.702C294.876 221.702 295.33 221.791 295.715 221.97C296.104 222.149 296.404 222.392 296.614 222.7C296.828 223.005 296.934 223.35 296.934 223.735C296.934 224.082 296.868 224.389 296.735 224.655C296.605 224.918 296.442 225.157 296.246 225.375C296.05 225.592 295.854 225.805 295.658 226.016L294.213 227.555V227.634H297.05V229H291.88V227.939L294.454 225.275C294.58 225.145 294.703 225.01 294.822 224.87C294.945 224.73 295.045 224.581 295.122 224.424C295.202 224.262 295.243 224.091 295.243 223.909C295.243 223.744 295.202 223.599 295.122 223.473C295.041 223.343 294.931 223.24 294.791 223.163C294.654 223.086 294.496 223.047 294.318 223.047C294.129 223.047 293.964 223.089 293.824 223.173C293.687 223.257 293.582 223.369 293.509 223.509C293.439 223.646 293.404 223.795 293.404 223.956C293.404 223.977 293.404 223.998 293.404 224.019C293.404 224.037 293.404 224.052 293.404 224.066Z" fill="#FF7345"/>
<path d="M285.937 221.828C286.491 221.828 286.951 221.942 287.319 222.17C287.691 222.394 287.971 222.695 288.16 223.073C288.349 223.448 288.444 223.861 288.444 224.313C288.444 224.769 288.347 225.184 288.155 225.559C287.966 225.93 287.684 226.226 287.309 226.446C286.934 226.664 286.47 226.772 285.916 226.772H284.634V229H282.911V221.828H285.937ZM286.694 224.313C286.694 223.938 286.591 223.651 286.384 223.452C286.177 223.252 285.895 223.152 285.538 223.152H284.629V225.474H285.538C285.776 225.474 285.981 225.429 286.153 225.338C286.328 225.247 286.461 225.115 286.552 224.944C286.647 224.769 286.694 224.558 286.694 224.313Z" fill="#FF7345"/>
<path d="M276.17 226.709H277.825C277.828 226.895 277.865 227.054 277.935 227.187C278.005 227.32 278.105 227.425 278.235 227.503C278.364 227.576 278.515 227.613 278.687 227.613C278.991 227.613 279.214 227.525 279.354 227.35C279.494 227.172 279.564 226.921 279.564 226.599V221.828H281.293V226.588C281.293 227.425 281.062 228.059 280.599 228.49C280.14 228.918 279.508 229.131 278.702 229.131C278.268 229.131 277.89 229.067 277.568 228.937C277.249 228.804 276.986 228.623 276.779 228.396C276.573 228.165 276.419 227.905 276.317 227.618C276.219 227.327 276.17 227.024 276.17 226.709Z" fill="#FF7345"/>
<path d="M273.385 229V223.389H275.061V229H273.385ZM273.222 221.786C273.222 221.53 273.313 221.325 273.496 221.171C273.678 221.017 273.919 220.94 274.221 220.94C274.518 220.94 274.758 221.017 274.94 221.171C275.126 221.325 275.219 221.53 275.219 221.786C275.219 222.038 275.128 222.241 274.946 222.396C274.764 222.546 274.522 222.621 274.221 222.621C273.923 222.621 273.681 222.546 273.496 222.396C273.313 222.241 273.222 222.038 273.222 221.786Z" fill="#FF7345"/>
<path d="M268.73 229.084C268.184 229.084 267.737 228.933 267.39 228.632C267.047 228.327 266.875 227.907 266.875 227.371C266.875 226.86 267.047 226.452 267.39 226.147C267.737 225.839 268.236 225.685 268.888 225.685H270.196V225.217C270.196 224.989 270.126 224.818 269.986 224.702C269.846 224.587 269.656 224.529 269.418 224.529C269.261 224.529 269.128 224.553 269.019 224.602C268.91 224.648 268.825 224.713 268.761 224.797C268.702 224.881 268.665 224.977 268.651 225.086H267.08C267.091 224.861 267.14 224.644 267.227 224.434C267.315 224.22 267.45 224.03 267.632 223.861C267.814 223.69 268.054 223.555 268.352 223.457C268.649 223.355 269.014 223.305 269.445 223.305C269.889 223.305 270.292 223.368 270.653 223.494C271.017 223.62 271.306 223.826 271.52 224.114C271.737 224.401 271.846 224.786 271.846 225.27V229H270.275V228.312H270.196C270.133 228.438 270.038 228.56 269.912 228.68C269.79 228.799 269.63 228.897 269.434 228.974C269.241 229.047 269.007 229.084 268.73 229.084ZM269.308 227.912C269.466 227.912 269.611 227.881 269.744 227.818C269.881 227.751 269.989 227.662 270.07 227.55C270.154 227.434 270.196 227.301 270.196 227.151V226.604H269.329C269.066 226.604 268.867 226.664 268.73 226.783C268.593 226.902 268.525 227.056 268.525 227.245C268.525 227.469 268.604 227.637 268.761 227.75C268.923 227.858 269.105 227.912 269.308 227.912Z" fill="#FF7345"/>
<path d="M261.154 225.075C261.154 224.644 261.262 224.299 261.479 224.04C261.7 223.777 261.989 223.586 262.346 223.467C262.707 223.348 263.096 223.289 263.513 223.289C263.944 223.289 264.327 223.352 264.663 223.478C265 223.604 265.262 223.793 265.451 224.045C265.644 224.294 265.74 224.604 265.74 224.975H264.28C264.269 224.874 264.232 224.779 264.169 224.692C264.11 224.601 264.024 224.527 263.912 224.471C263.8 224.411 263.658 224.382 263.486 224.382C263.245 224.382 263.059 224.434 262.929 224.539C262.8 224.644 262.735 224.781 262.735 224.949C262.735 225.079 262.784 225.184 262.882 225.264C262.98 225.341 263.105 225.404 263.255 225.453C263.409 225.499 263.572 225.536 263.744 225.564C263.915 225.588 264.075 225.611 264.222 225.632C264.565 225.688 264.865 225.779 265.12 225.905C265.376 226.028 265.574 226.196 265.714 226.41C265.858 226.623 265.93 226.897 265.93 227.229C265.93 227.618 265.832 227.953 265.635 228.233C265.439 228.513 265.154 228.729 264.779 228.879C264.408 229.03 263.954 229.105 263.418 229.105C262.903 229.105 262.469 229.033 262.115 228.89C261.761 228.743 261.492 228.541 261.306 228.285C261.124 228.03 261.033 227.736 261.033 227.403H262.656C262.67 227.518 262.711 227.622 262.777 227.713C262.844 227.804 262.936 227.876 263.056 227.928C263.178 227.977 263.325 228.002 263.497 228.002C263.69 228.002 263.845 227.977 263.965 227.928C264.084 227.876 264.171 227.806 264.227 227.718C264.283 227.627 264.311 227.529 264.311 227.424C264.311 227.263 264.245 227.144 264.112 227.066C263.979 226.986 263.807 226.926 263.597 226.888C263.387 226.846 263.164 226.802 262.929 226.757C262.604 226.693 262.306 226.601 262.036 226.478C261.767 226.355 261.551 226.182 261.39 225.958C261.232 225.734 261.154 225.439 261.154 225.075Z" fill="#FF7345"/>
<path d="M256.761 229.084C256.215 229.084 255.768 228.933 255.421 228.632C255.078 228.327 254.906 227.907 254.906 227.371C254.906 226.86 255.078 226.452 255.421 226.147C255.768 225.839 256.267 225.685 256.919 225.685H258.227V225.217C258.227 224.989 258.157 224.818 258.017 224.702C257.877 224.587 257.687 224.529 257.449 224.529C257.292 224.529 257.159 224.553 257.05 224.602C256.941 224.648 256.856 224.713 256.792 224.797C256.733 224.881 256.696 224.977 256.682 225.086H255.111C255.122 224.861 255.171 224.644 255.258 224.434C255.346 224.22 255.481 224.03 255.663 223.861C255.845 223.69 256.085 223.555 256.383 223.457C256.68 223.355 257.045 223.305 257.476 223.305C257.92 223.305 258.323 223.368 258.684 223.494C259.048 223.62 259.337 223.826 259.551 224.114C259.768 224.401 259.877 224.786 259.877 225.27V229H258.306V228.312H258.227C258.164 228.438 258.069 228.56 257.943 228.68C257.821 228.799 257.661 228.897 257.465 228.974C257.272 229.047 257.038 229.084 256.761 229.084ZM257.339 227.912C257.497 227.912 257.642 227.881 257.775 227.818C257.912 227.751 258.02 227.662 258.101 227.55C258.185 227.434 258.227 227.301 258.227 227.151V226.604H257.36C257.097 226.604 256.898 226.664 256.761 226.783C256.624 226.902 256.556 227.056 256.556 227.245C256.556 227.469 256.635 227.637 256.792 227.75C256.954 227.858 257.136 227.912 257.339 227.912Z" fill="#FF7345"/>
<path d="M250.309 223.326C250.572 223.326 250.81 223.364 251.023 223.441C251.237 223.515 251.418 223.621 251.565 223.762C251.715 223.902 251.826 224.066 251.896 224.255H251.974V221.45H253.656V229H251.99V228.102H251.911C251.866 228.245 251.794 228.377 251.696 228.496C251.598 228.611 251.477 228.711 251.333 228.795C251.193 228.879 251.036 228.944 250.861 228.989C250.685 229.035 250.498 229.058 250.298 229.058C249.882 229.058 249.519 228.96 249.211 228.764C248.903 228.564 248.663 228.275 248.491 227.897C248.323 227.518 248.239 227.061 248.239 226.525V225.853C248.239 225.317 248.325 224.861 248.496 224.487C248.668 224.112 248.908 223.825 249.216 223.625C249.528 223.425 249.892 223.326 250.309 223.326ZM250.955 224.629C250.759 224.629 250.586 224.679 250.435 224.781C250.288 224.882 250.172 225.033 250.088 225.233C250.008 225.432 249.967 225.678 249.967 225.968V226.42C249.967 226.711 250.008 226.958 250.088 227.161C250.172 227.361 250.29 227.511 250.44 227.613C250.591 227.714 250.766 227.765 250.966 227.765C251.165 227.765 251.34 227.714 251.491 227.613C251.642 227.511 251.759 227.364 251.843 227.172C251.931 226.975 251.974 226.737 251.974 226.457V225.895C251.974 225.625 251.931 225.396 251.843 225.206C251.756 225.017 251.635 224.874 251.481 224.776C251.326 224.678 251.151 224.629 250.955 224.629Z" fill="#FF7345"/>
<path d="M246.978 223.389V229H245.354V228.059H245.27C245.221 228.207 245.13 228.359 244.997 228.517C244.864 228.674 244.685 228.809 244.461 228.921C244.237 229.03 243.96 229.084 243.631 229.084C243.26 229.084 242.934 229.016 242.654 228.879C242.377 228.739 242.161 228.525 242.007 228.238C241.853 227.947 241.776 227.578 241.776 227.13V223.389H243.452V226.699C243.452 226.968 243.496 227.177 243.584 227.324C243.671 227.468 243.781 227.567 243.915 227.623C244.051 227.676 244.19 227.702 244.33 227.702C244.505 227.702 244.666 227.662 244.813 227.581C244.96 227.497 245.079 227.376 245.17 227.219C245.261 227.061 245.307 226.872 245.307 226.651V223.389H246.978Z" fill="#FF7345"/>
<path d="M240.957 221.828L238.466 224.939L241.051 229H239.013L237.205 226.079L236.564 226.83V229H234.835V221.828H236.564V224.886H236.638L239.107 221.828H240.957Z" fill="#FF7345"/>
<path d="M340.844 224.077H344.219C343.526 223.555 342.905 222.97 342.491 222.412C342.104 222.961 341.528 223.546 340.844 224.077ZM340.403 225.058V224.401C339.926 224.743 339.404 225.049 338.882 225.301C338.756 225.04 338.477 224.635 338.252 224.401C339.782 223.726 341.213 222.448 341.888 221.386H343.004C343.958 222.709 345.389 223.735 346.811 224.239C346.541 224.518 346.307 224.905 346.118 225.22C345.623 224.986 345.101 224.689 344.606 224.347V225.058H340.403ZM338.81 226.795V225.805H346.253V226.795H342.221C341.96 227.326 341.663 227.884 341.393 228.388C342.257 228.361 343.184 228.325 344.102 228.289C343.823 227.965 343.517 227.641 343.22 227.371L344.165 226.876C344.966 227.578 345.803 228.514 346.226 229.189L345.227 229.792C345.137 229.621 345.011 229.432 344.867 229.234C342.752 229.351 340.529 229.441 338.999 229.513L338.855 228.469L340.214 228.424C340.457 227.92 340.709 227.326 340.898 226.795H338.81Z" fill="#FF7345"/>
<path d="M331.88 226.84H333.437V225.472H331.88V226.84ZM337.622 226.84V227.866H334.544V229.792H333.437V227.866H329.387V226.84H330.809V224.473H333.437V223.402H331.511C331.142 224.041 330.71 224.617 330.287 225.04C330.08 224.86 329.621 224.5 329.36 224.347C330.17 223.663 330.863 222.511 331.25 221.35L332.339 221.629C332.258 221.881 332.159 222.124 332.042 222.367H337.127V223.402H334.544V224.473H336.92V225.472H334.544V226.84H337.622Z" fill="#FF7345"/>
<path d="M321.593 224.293V223.393H320.576V222.403H323.951V221.377H325.013V222.403H328.442V223.393H322.664V224.32C322.664 224.644 322.772 224.77 323.294 224.77H326.228C326.705 224.77 327.389 224.743 327.731 224.68C327.749 224.968 327.803 225.4 327.848 225.661C327.587 225.724 326.867 225.742 326.291 225.742H324.149C324.716 226.057 325.355 226.516 325.67 226.885L324.896 227.605C324.581 227.2 323.852 226.642 323.231 226.291L323.852 225.742H323.393C322.061 225.742 321.593 225.409 321.593 224.293ZM321.116 229.387L320.216 228.802C320.774 228.325 321.134 227.56 321.314 226.75L322.268 227.047C322.061 227.92 321.737 228.811 321.116 229.387ZM324.158 228.703H325.391C325.751 228.703 325.823 228.577 325.859 227.722C326.075 227.884 326.525 228.046 326.813 228.109C326.696 229.351 326.399 229.657 325.49 229.657H324.041C322.889 229.657 322.601 229.36 322.601 228.415V226.831H323.663V228.406C323.663 228.667 323.735 228.703 324.158 228.703ZM326.336 227.083L327.254 226.651C327.848 227.29 328.478 228.181 328.703 228.829L327.713 229.315C327.524 228.685 326.93 227.758 326.336 227.083Z" fill="#FF7345"/>
<g opacity="0.6" clip-path="url(#clip7_1_2890)">
<path d="M109.863 218.197C109.608 215.17 112.725 213.001 115.474 214.293L156.619 233.626C159.369 234.918 159.688 238.702 157.195 240.438L119.879 266.403C117.385 268.139 113.948 266.524 113.693 263.496L109.863 218.197Z" stroke="url(#paint9_linear_1_2890)" stroke-width="1.13371"/>
</g>
</g>
<defs>
<linearGradient id="paint0_linear_1_2890" x1="94.5071" y1="43.5252" x2="18.2862" y2="119.746" gradientUnits="userSpaceOnUse">
<stop stop-color="#F56420"/>
<stop offset="1" stop-color="#FF9C5A"/>
</linearGradient>
<linearGradient id="paint1_linear_1_2890" x1="-17.7171" y1="48.4624" x2="34.1431" y2="48.4624" gradientUnits="userSpaceOnUse">
<stop stop-color="#F56420"/>
<stop offset="1" stop-color="#FF9C5A"/>
</linearGradient>
<linearGradient id="paint2_linear_1_2890" x1="325.306" y1="162.312" x2="377.166" y2="162.312" gradientUnits="userSpaceOnUse">
<stop stop-color="#F56420"/>
<stop offset="1" stop-color="#FF9C5A"/>
</linearGradient>
<linearGradient id="paint3_linear_1_2890" x1="323.066" y1="110.306" x2="367.978" y2="136.236" gradientUnits="userSpaceOnUse">
<stop stop-color="#F56420"/>
<stop offset="1" stop-color="#FF9C5A"/>
</linearGradient>
<linearGradient id="paint4_linear_1_2890" x1="213.767" y1="-60.8878" x2="241.666" y2="43.232" gradientUnits="userSpaceOnUse">
<stop stop-color="#F56420"/>
<stop offset="1" stop-color="#FF9C5A"/>
</linearGradient>
<linearGradient id="paint5_linear_1_2890" x1="85.6993" y1="152.63" x2="7.46081" y2="226.778" gradientUnits="userSpaceOnUse">
<stop stop-color="#F56420"/>
<stop offset="1" stop-color="#FF9C5A"/>
</linearGradient>
<linearGradient id="paint6_linear_1_2890" x1="327.698" y1="21.2962" x2="277.464" y2="34.7563" gradientUnits="userSpaceOnUse">
<stop stop-color="#F56420"/>
<stop offset="1" stop-color="#FF9C5A"/>
</linearGradient>
<linearGradient id="paint7_linear_1_2890" x1="49.032" y1="-5.63161" x2="100.056" y2="8.04035" gradientUnits="userSpaceOnUse">
<stop stop-color="#F56420"/>
<stop offset="1" stop-color="#FF9C5A"/>
</linearGradient>
<linearGradient id="paint8_linear_1_2890" x1="125.559" y1="246.117" x2="177.588" y2="236.988" gradientUnits="userSpaceOnUse">
<stop stop-color="#F56420"/>
<stop offset="1" stop-color="#FF9C5A"/>
</linearGradient>
<linearGradient id="paint9_linear_1_2890" x1="109.04" y1="211.03" x2="138.661" y2="253.598" gradientUnits="userSpaceOnUse">
<stop stop-color="#F56420"/>
<stop offset="1" stop-color="#FF9C5A"/>
</linearGradient>
<clipPath id="clip0_1_2890">
<rect width="364" height="246" fill="white"/>
</clipPath>
<clipPath id="clip1_1_2890">
<rect width="113.581" height="113.581" fill="white" transform="translate(53.3141 4.37189) rotate(45)"/>
</clipPath>
<clipPath id="clip2_1_2890">
<rect width="54.645" height="54.6451" fill="white" transform="translate(-17.0232 75.796) rotate(-90)"/>
</clipPath>
<clipPath id="clip3_1_2890">
<rect width="54.645" height="54.6451" fill="white" transform="translate(326 189.645) rotate(-90)"/>
</clipPath>
<clipPath id="clip4_1_2890">
<rect width="54.645" height="54.6451" fill="white" transform="translate(310 134.324) rotate(-60)"/>
</clipPath>
<clipPath id="clip5_1_2890">
<rect width="54.7985" height="54.7985" fill="white" transform="translate(319.931 -4.99997) rotate(75)"/>
</clipPath>
<clipPath id="clip6_1_2890">
<rect width="17" height="18.9966" fill="white" transform="translate(212 213)"/>
</clipPath>
<clipPath id="clip7_1_2890">
<rect width="54.645" height="54.6451" fill="white" transform="translate(87 227.212) rotate(-34.8317)"/>
</clipPath>
</defs>
</svg>
