<svg width="246" height="364" viewBox="0 0 246 364" fill="none" xmlns="http://www.w3.org/2000/svg">
<g clip-path="url(#clip0_1_3016)">
<rect width="246" height="364" fill="#222222"/>
<g opacity="0.6" clip-path="url(#clip1_1_3016)">
<path d="M160.615 117.601C156.737 112.616 159.709 105.304 165.964 104.438L259.563 91.4809C265.818 90.615 270.664 96.845 268.287 102.695L232.709 190.232C230.331 196.082 222.512 197.164 218.635 192.18L160.615 117.601Z" stroke="url(#paint0_linear_1_3016)" stroke-width="1.13371"/>
</g>
<g opacity="0.6" clip-path="url(#clip2_1_3016)">
<path d="M24.7293 379.985C23.2102 382.616 19.4127 382.616 17.8936 379.985L-4.83663 340.615C-6.35568 337.984 -4.4569 334.696 -1.4188 334.696L44.0417 334.696C47.0798 334.696 48.9785 337.984 47.4595 340.615L24.7293 379.985Z" stroke="url(#paint1_linear_1_3016)" stroke-width="1.13371"/>
</g>
<g opacity="0.6" clip-path="url(#clip3_1_3016)">
<path d="M199.729 51.9854C198.21 54.6165 194.413 54.6164 192.894 51.9854L170.163 12.6155C168.644 9.98442 170.543 6.69565 173.581 6.69565L219.042 6.69565C222.08 6.69565 223.979 9.98441 222.46 12.6155L199.729 51.9854Z" stroke="url(#paint2_linear_1_3016)" stroke-width="1.13371"/>
</g>
<g opacity="0.6" clip-path="url(#clip4_1_3016)">
<path d="M102.442 23.7873C99.8111 25.3063 96.5224 23.4075 96.5224 20.3694L96.5223 -25.0911C96.5223 -28.1291 99.8111 -30.0279 102.442 -28.5089L141.812 -5.77862C144.443 -4.25958 144.443 -0.462025 141.812 1.05707L102.442 23.7873Z" stroke="url(#paint3_linear_1_3016)" stroke-width="1.13371"/>
</g>
<path opacity="0.8" d="M-47.4098 191.785C-53.8445 190.061 -55.9997 182.017 -51.2892 177.307L15.5259 110.492C20.2364 105.781 28.2797 107.937 30.0038 114.371L54.4599 205.642C56.184 212.077 50.2959 217.965 43.8611 216.241L-47.4098 191.785Z" fill="url(#paint4_linear_1_3016)" fill-opacity="0.6"/>
<path opacity="0.8" d="M187.119 310.757C185.568 304.278 191.612 298.55 197.998 300.446L288.58 327.342C294.967 329.238 296.905 337.337 292.07 341.919L223.486 406.917C218.651 411.5 210.668 409.13 209.117 402.651L187.119 310.757Z" fill="url(#paint5_linear_1_3016)" fill-opacity="0.6"/>
<g opacity="0.6" clip-path="url(#clip5_1_3016)">
<path d="M20.6346 -7.54211C21.4232 -10.4849 25.1016 -11.4705 27.2559 -9.31627L59.4916 22.9194C61.6459 25.0736 60.6602 28.7521 57.7174 29.5406L13.6827 41.3397C10.7399 42.1282 8.04707 39.4354 8.83558 36.4925L20.6346 -7.54211Z" stroke="url(#paint6_linear_1_3016)" stroke-width="1.13371"/>
</g>
<path opacity="0.8" d="M22.1987 346.966C21.7427 350.198 17.9583 351.725 15.3868 349.714L-21.0875 321.186C-23.6589 319.174 -23.0888 315.134 -20.0613 313.913L22.8818 296.589C25.9094 295.368 29.1237 297.882 28.6676 301.114L22.1987 346.966Z" fill="url(#paint7_linear_1_3016)" fill-opacity="0.6"/>
<path opacity="0.8" d="M202.13 37.5538C199.06 38.6642 195.939 36.0349 196.512 32.8211L204.644 -12.765C205.217 -15.9789 209.055 -17.3669 211.551 -15.2635L246.964 14.572C249.461 16.6754 248.744 20.6927 245.674 21.8031L202.13 37.5538Z" fill="url(#paint8_linear_1_3016)" fill-opacity="0.6"/>
<g clip-path="url(#clip6_1_3016)">
<path d="M69.9588 348.981L65.559 335.949C65.4539 335.638 65.1637 335.428 64.8375 335.428H62.4475V331.23C62.4475 330.986 62.1201 330.91 62.0145 331.13L59.9485 335.429H57.5255C57.1865 335.429 56.8883 335.654 56.7936 335.982L53.0308 349.014C52.8889 349.505 53.2547 349.997 53.7627 349.997H69.2373C69.7595 349.997 70.1271 349.479 69.9588 348.981Z" fill="#FF7345"/>
<path d="M69.1952 349.818H61.5194C61.1719 349.818 60.8664 349.587 60.7702 349.25L57.1247 336.507C56.9994 336.069 57.3255 335.632 57.7778 335.632H64.8471C65.0807 335.632 65.2886 335.782 65.3646 336.004L69.7899 348.978C69.9303 349.39 69.627 349.818 69.1952 349.818Z" fill="white"/>
<path d="M61.7671 341.674C61.5995 341.674 61.4636 341.537 61.4636 341.368V339.073C61.4636 338.905 61.5995 338.768 61.7671 338.768C61.9347 338.768 62.0705 338.905 62.0705 339.073V341.368C62.0705 341.537 61.9347 341.674 61.7671 341.674Z" fill="#FF7345"/>
<path d="M64.1317 341.674C63.9641 341.674 63.8282 341.537 63.8282 341.368V339.073C63.8282 338.905 63.9641 338.768 64.1317 338.768C64.2993 338.768 64.4351 338.905 64.4351 339.073V341.368C64.4351 341.537 64.2993 341.674 64.1317 341.674Z" fill="#FF7345"/>
<path d="M68.5185 345.022H59.4761V345.196H68.5185V345.022Z" fill="#FF7345"/>
<path d="M64.7762 348.386C64.9293 348.386 65.0534 348.261 65.0534 348.107C65.0534 347.953 64.9293 347.827 64.7762 347.827C64.623 347.827 64.4989 347.953 64.4989 348.107C64.4989 348.261 64.623 348.386 64.7762 348.386Z" fill="#FF7345"/>
<path d="M65.7387 348.386C65.8918 348.386 66.016 348.261 66.016 348.107C66.016 347.953 65.8918 347.827 65.7387 347.827C65.5856 347.827 65.4614 347.953 65.4614 348.107C65.4614 348.261 65.5856 348.386 65.7387 348.386Z" fill="#FF7345"/>
</g>
<path d="M152.625 345.051H154.18C154.201 345.166 154.245 345.271 154.312 345.366C154.382 345.461 154.466 345.541 154.564 345.608C154.665 345.671 154.779 345.72 154.905 345.755C155.035 345.79 155.168 345.807 155.305 345.807C155.518 345.807 155.711 345.76 155.883 345.665C156.058 345.567 156.198 345.429 156.303 345.25C156.408 345.068 156.461 344.856 156.461 344.615C156.461 344.387 156.41 344.187 156.308 344.016C156.21 343.844 156.073 343.711 155.898 343.616C155.723 343.522 155.529 343.475 155.315 343.475C155.126 343.475 154.963 343.506 154.826 343.569C154.69 343.632 154.576 343.709 154.485 343.8C154.397 343.888 154.333 343.972 154.291 344.052H152.772L153.056 339.828H157.68V341.184H154.406L154.27 342.823H154.354C154.403 342.746 154.488 342.66 154.611 342.566C154.734 342.467 154.893 342.383 155.089 342.313C155.289 342.243 155.525 342.208 155.799 342.208C156.208 342.208 156.588 342.299 156.939 342.481C157.289 342.66 157.571 342.923 157.785 343.27C158.002 343.616 158.11 344.045 158.11 344.557C158.11 345.082 157.991 345.538 157.753 345.923C157.515 346.308 157.184 346.606 156.76 346.816C156.34 347.026 155.851 347.131 155.294 347.131C154.891 347.131 154.527 347.079 154.201 346.974C153.879 346.869 153.601 346.722 153.366 346.532C153.135 346.34 152.954 346.117 152.825 345.865C152.699 345.613 152.632 345.341 152.625 345.051Z" fill="#FF7345"/>
<path d="M147.739 342.066H146.115V341.972C146.115 341.695 146.166 341.424 146.267 341.157C146.372 340.888 146.528 340.644 146.735 340.427C146.945 340.206 147.211 340.031 147.534 339.902C147.859 339.769 148.245 339.702 148.69 339.702C149.211 339.702 149.665 339.791 150.05 339.97C150.439 340.149 150.739 340.392 150.949 340.7C151.162 341.005 151.269 341.35 151.269 341.735C151.269 342.082 151.203 342.389 151.07 342.655C150.94 342.918 150.777 343.158 150.581 343.375C150.385 343.592 150.189 343.806 149.993 344.016L148.548 345.555V345.634H151.385V347H146.215V345.939L148.789 343.275C148.915 343.145 149.038 343.01 149.157 342.87C149.28 342.73 149.38 342.581 149.457 342.424C149.537 342.263 149.577 342.091 149.577 341.909C149.577 341.744 149.537 341.599 149.457 341.473C149.376 341.343 149.266 341.24 149.126 341.163C148.989 341.086 148.831 341.047 148.653 341.047C148.464 341.047 148.299 341.089 148.159 341.173C148.022 341.257 147.917 341.369 147.844 341.509C147.774 341.646 147.739 341.795 147.739 341.956C147.739 341.977 147.739 341.998 147.739 342.019C147.739 342.037 147.739 342.052 147.739 342.066Z" fill="#FF7345"/>
<path d="M140.929 343.238V343.58C140.929 344.035 140.973 344.426 141.061 344.751C141.152 345.074 141.279 345.322 141.444 345.497C141.612 345.669 141.81 345.755 142.038 345.755C142.272 345.755 142.472 345.669 142.637 345.497C142.805 345.322 142.933 345.074 143.02 344.751C143.108 344.426 143.152 344.035 143.152 343.58V343.238C143.152 342.786 143.108 342.399 143.02 342.077C142.933 341.751 142.805 341.504 142.637 341.336C142.472 341.164 142.272 341.079 142.038 341.079C141.807 341.079 141.607 341.164 141.439 341.336C141.274 341.504 141.148 341.749 141.061 342.072C140.973 342.394 140.929 342.783 140.929 343.238ZM139.201 343.585V343.233C139.201 342.522 139.316 341.902 139.547 341.373C139.779 340.84 140.108 340.429 140.535 340.138C140.962 339.847 141.47 339.702 142.059 339.702C142.651 339.702 143.157 339.846 143.577 340.133C143.998 340.42 144.32 340.828 144.544 341.357C144.768 341.886 144.88 342.511 144.88 343.233V343.585C144.88 344.121 144.814 344.606 144.681 345.04C144.548 345.475 144.357 345.848 144.108 346.159C143.859 346.471 143.56 346.711 143.209 346.879C142.859 347.047 142.463 347.131 142.022 347.131C141.437 347.131 140.934 346.986 140.514 346.695C140.094 346.405 139.77 345.995 139.542 345.466C139.314 344.933 139.201 344.306 139.201 343.585Z" fill="#FF7345"/>
<path d="M134.404 342.066H132.78V341.972C132.78 341.695 132.831 341.424 132.932 341.157C133.037 340.888 133.193 340.644 133.4 340.427C133.61 340.206 133.876 340.031 134.199 339.902C134.524 339.769 134.91 339.702 135.355 339.702C135.876 339.702 136.33 339.791 136.715 339.97C137.104 340.149 137.404 340.392 137.614 340.7C137.828 341.005 137.934 341.35 137.934 341.735C137.934 342.082 137.868 342.389 137.735 342.655C137.605 342.918 137.442 343.158 137.246 343.375C137.05 343.592 136.854 343.806 136.658 344.016L135.213 345.555V345.634H138.05V347H132.88V345.939L135.454 343.275C135.58 343.145 135.703 343.01 135.822 342.87C135.945 342.73 136.045 342.581 136.122 342.424C136.202 342.263 136.243 342.091 136.243 341.909C136.243 341.744 136.202 341.599 136.122 341.473C136.041 341.343 135.931 341.24 135.791 341.163C135.654 341.086 135.496 341.047 135.318 341.047C135.129 341.047 134.964 341.089 134.824 341.173C134.687 341.257 134.582 341.369 134.509 341.509C134.439 341.646 134.404 341.795 134.404 341.956C134.404 341.977 134.404 341.998 134.404 342.019C134.404 342.037 134.404 342.052 134.404 342.066Z" fill="#FF7345"/>
<path d="M126.937 339.828C127.491 339.828 127.951 339.942 128.319 340.17C128.691 340.394 128.971 340.695 129.16 341.073C129.349 341.448 129.444 341.861 129.444 342.313C129.444 342.769 129.347 343.184 129.155 343.559C128.966 343.93 128.684 344.226 128.309 344.447C127.934 344.664 127.47 344.772 126.916 344.772H125.634V347H123.911V339.828H126.937ZM127.694 342.313C127.694 341.939 127.591 341.651 127.384 341.452C127.177 341.252 126.895 341.152 126.538 341.152H125.629V343.475H126.538C126.776 343.475 126.981 343.429 127.153 343.338C127.328 343.247 127.461 343.115 127.552 342.944C127.647 342.769 127.694 342.559 127.694 342.313Z" fill="#FF7345"/>
<path d="M117.17 344.709H118.825C118.828 344.895 118.865 345.054 118.935 345.187C119.005 345.32 119.105 345.426 119.235 345.503C119.364 345.576 119.515 345.613 119.687 345.613C119.991 345.613 120.214 345.525 120.354 345.35C120.494 345.172 120.564 344.921 120.564 344.599V339.828H122.293V344.588C122.293 345.426 122.062 346.06 121.599 346.49C121.14 346.918 120.508 347.131 119.702 347.131C119.268 347.131 118.89 347.067 118.568 346.937C118.249 346.804 117.986 346.624 117.779 346.396C117.573 346.165 117.419 345.905 117.317 345.618C117.219 345.327 117.17 345.024 117.17 344.709Z" fill="#FF7345"/>
<path d="M114.385 347V341.389H116.061V347H114.385ZM114.222 339.786C114.222 339.53 114.313 339.325 114.496 339.171C114.678 339.017 114.919 338.94 115.221 338.94C115.518 338.94 115.758 339.017 115.94 339.171C116.126 339.325 116.219 339.53 116.219 339.786C116.219 340.038 116.128 340.241 115.946 340.396C115.764 340.546 115.522 340.622 115.221 340.622C114.923 340.622 114.681 340.546 114.496 340.396C114.313 340.241 114.222 340.038 114.222 339.786Z" fill="#FF7345"/>
<path d="M109.73 347.084C109.184 347.084 108.737 346.934 108.39 346.632C108.047 346.328 107.875 345.907 107.875 345.371C107.875 344.86 108.047 344.452 108.39 344.147C108.737 343.839 109.236 343.685 109.888 343.685H111.196V343.217C111.196 342.989 111.126 342.818 110.986 342.702C110.846 342.587 110.656 342.529 110.418 342.529C110.261 342.529 110.128 342.553 110.019 342.602C109.91 342.648 109.825 342.713 109.761 342.797C109.702 342.881 109.665 342.977 109.651 343.086H108.08C108.091 342.862 108.14 342.644 108.227 342.434C108.315 342.221 108.45 342.03 108.632 341.862C108.814 341.69 109.054 341.555 109.352 341.457C109.649 341.355 110.014 341.305 110.445 341.305C110.889 341.305 111.292 341.368 111.653 341.494C112.017 341.62 112.306 341.826 112.52 342.114C112.737 342.401 112.846 342.786 112.846 343.27V347H111.275V346.312H111.196C111.133 346.438 111.038 346.56 110.912 346.68C110.79 346.799 110.63 346.897 110.434 346.974C110.241 347.047 110.007 347.084 109.73 347.084ZM110.308 345.912C110.466 345.912 110.611 345.881 110.744 345.818C110.881 345.751 110.989 345.662 111.07 345.55C111.154 345.434 111.196 345.301 111.196 345.151V344.604H110.329C110.066 344.604 109.867 344.664 109.73 344.783C109.593 344.902 109.525 345.056 109.525 345.245C109.525 345.469 109.604 345.637 109.761 345.75C109.923 345.858 110.105 345.912 110.308 345.912Z" fill="#FF7345"/>
<path d="M102.154 343.075C102.154 342.644 102.262 342.299 102.479 342.04C102.7 341.777 102.989 341.587 103.346 341.467C103.707 341.348 104.096 341.289 104.513 341.289C104.944 341.289 105.327 341.352 105.663 341.478C106 341.604 106.262 341.793 106.451 342.045C106.644 342.294 106.74 342.604 106.74 342.975H105.28C105.269 342.874 105.232 342.779 105.169 342.692C105.11 342.601 105.024 342.527 104.912 342.471C104.8 342.411 104.658 342.382 104.486 342.382C104.245 342.382 104.059 342.434 103.929 342.539C103.8 342.644 103.735 342.781 103.735 342.949C103.735 343.079 103.784 343.184 103.882 343.264C103.98 343.341 104.105 343.404 104.255 343.454C104.409 343.499 104.572 343.536 104.744 343.564C104.915 343.588 105.075 343.611 105.222 343.632C105.565 343.688 105.865 343.779 106.12 343.905C106.376 344.028 106.574 344.196 106.714 344.41C106.858 344.623 106.93 344.897 106.93 345.229C106.93 345.618 106.832 345.953 106.635 346.233C106.439 346.513 106.154 346.729 105.779 346.879C105.408 347.03 104.954 347.105 104.418 347.105C103.903 347.105 103.469 347.033 103.115 346.89C102.761 346.743 102.492 346.541 102.306 346.286C102.124 346.03 102.033 345.736 102.033 345.403H103.656C103.67 345.518 103.711 345.622 103.777 345.713C103.844 345.804 103.936 345.876 104.056 345.928C104.178 345.977 104.325 346.002 104.497 346.002C104.69 346.002 104.845 345.977 104.965 345.928C105.084 345.876 105.171 345.806 105.227 345.718C105.283 345.627 105.311 345.529 105.311 345.424C105.311 345.263 105.245 345.144 105.112 345.067C104.979 344.986 104.807 344.926 104.597 344.888C104.387 344.846 104.164 344.802 103.929 344.757C103.604 344.694 103.306 344.601 103.036 344.478C102.767 344.355 102.551 344.182 102.39 343.958C102.232 343.734 102.154 343.44 102.154 343.075Z" fill="#FF7345"/>
<path d="M97.761 347.084C97.2145 347.084 96.7679 346.934 96.4212 346.632C96.0779 346.328 95.9062 345.907 95.9062 345.371C95.9062 344.86 96.0779 344.452 96.4212 344.147C96.7679 343.839 97.2671 343.685 97.9186 343.685H99.2269V343.217C99.2269 342.989 99.1568 342.818 99.0167 342.702C98.8766 342.587 98.6875 342.529 98.4493 342.529C98.2916 342.529 98.1585 342.553 98.0499 342.602C97.9414 342.648 97.8555 342.713 97.7925 342.797C97.7329 342.881 97.6962 342.977 97.6822 343.086H96.1112C96.1217 342.862 96.1707 342.644 96.2583 342.434C96.3458 342.221 96.4807 342.03 96.6628 341.862C96.845 341.69 97.0849 341.555 97.3827 341.457C97.6804 341.355 98.0447 341.305 98.4755 341.305C98.9204 341.305 99.3232 341.368 99.684 341.494C100.048 341.62 100.337 341.826 100.551 342.114C100.768 342.401 100.877 342.786 100.877 343.27V347H99.3057V346.312H99.2269C99.1638 346.438 99.0693 346.56 98.9432 346.68C98.8206 346.799 98.6612 346.897 98.465 346.974C98.2724 347.047 98.0377 347.084 97.761 347.084ZM98.3389 345.912C98.4966 345.912 98.6419 345.881 98.775 345.818C98.9116 345.751 99.0202 345.662 99.1008 345.55C99.1848 345.434 99.2269 345.301 99.2269 345.151V344.604H98.3599C98.0972 344.604 97.8976 344.664 97.761 344.783C97.6244 344.902 97.5561 345.056 97.5561 345.245C97.5561 345.469 97.6349 345.637 97.7925 345.75C97.9536 345.858 98.1358 345.912 98.3389 345.912Z" fill="#FF7345"/>
<path d="M91.3089 341.326C91.5716 341.326 91.8098 341.364 92.0235 341.441C92.2371 341.515 92.4175 341.622 92.5647 341.762C92.7153 341.902 92.8256 342.066 92.8957 342.256H92.9745V339.45H94.6558V347H92.9902V346.102H92.9114C92.8659 346.245 92.7941 346.377 92.696 346.496C92.5979 346.611 92.4771 346.711 92.3335 346.795C92.1934 346.879 92.0357 346.944 91.8606 346.99C91.6855 347.035 91.4981 347.058 91.2984 347.058C90.8816 347.058 90.519 346.96 90.2108 346.764C89.9025 346.564 89.6626 346.275 89.491 345.897C89.3228 345.518 89.2388 345.061 89.2388 344.525V343.853C89.2388 343.317 89.3246 342.862 89.4962 342.487C89.6679 342.112 89.9078 341.825 90.216 341.625C90.5278 341.425 90.8921 341.326 91.3089 341.326ZM91.9552 342.629C91.759 342.629 91.5856 342.679 91.435 342.781C91.2879 342.883 91.1723 343.033 91.0882 343.233C91.0077 343.432 90.9674 343.678 90.9674 343.968V344.42C90.9674 344.711 91.0077 344.958 91.0882 345.161C91.1723 345.361 91.2896 345.511 91.4403 345.613C91.5909 345.715 91.766 345.765 91.9657 345.765C92.1653 345.765 92.3405 345.715 92.4911 345.613C92.6417 345.511 92.7591 345.364 92.8431 345.172C92.9307 344.975 92.9745 344.737 92.9745 344.457V343.895C92.9745 343.625 92.9307 343.396 92.8431 343.207C92.7556 343.017 92.6347 342.874 92.4806 342.776C92.3265 342.678 92.1513 342.629 91.9552 342.629Z" fill="#FF7345"/>
<path d="M87.9777 341.389V347H86.3542V346.06H86.2701C86.2211 346.207 86.13 346.359 85.9969 346.517C85.8638 346.674 85.6852 346.809 85.461 346.921C85.2368 347.03 84.9601 347.084 84.6308 347.084C84.2595 347.084 83.9338 347.016 83.6536 346.879C83.3768 346.739 83.1614 346.525 83.0073 346.238C82.8532 345.947 82.7761 345.578 82.7761 345.13V341.389H84.4522V344.699C84.4522 344.968 84.496 345.177 84.5836 345.324C84.6711 345.468 84.7815 345.567 84.9146 345.623C85.0512 345.676 85.1895 345.702 85.3296 345.702C85.5048 345.702 85.6659 345.662 85.813 345.581C85.9601 345.497 86.0792 345.377 86.1703 345.219C86.2614 345.061 86.3069 344.872 86.3069 344.651V341.389H87.9777Z" fill="#FF7345"/>
<path d="M81.9565 339.828L79.4661 342.939L82.0511 347H80.0125L78.2051 344.079L77.5641 344.83V347H75.8354V339.828H77.5641V342.886H77.6376L80.1071 339.828H81.9565Z" fill="#FF7345"/>
<path d="M181.844 342.077H185.219C184.526 341.555 183.905 340.97 183.491 340.412C183.104 340.961 182.528 341.546 181.844 342.077ZM181.403 343.058V342.401C180.926 342.743 180.404 343.049 179.882 343.301C179.756 343.04 179.477 342.635 179.252 342.401C180.782 341.726 182.213 340.448 182.888 339.386H184.004C184.958 340.709 186.389 341.735 187.811 342.239C187.541 342.518 187.307 342.905 187.118 343.22C186.623 342.986 186.101 342.689 185.606 342.347V343.058H181.403ZM179.81 344.795V343.805H187.253V344.795H183.221C182.96 345.326 182.663 345.884 182.393 346.388C183.257 346.361 184.184 346.325 185.102 346.289C184.823 345.965 184.517 345.641 184.22 345.371L185.165 344.876C185.966 345.578 186.803 346.514 187.226 347.189L186.227 347.792C186.137 347.621 186.011 347.432 185.867 347.234C183.752 347.351 181.529 347.441 179.999 347.513L179.855 346.469L181.214 346.424C181.457 345.92 181.709 345.326 181.898 344.795H179.81Z" fill="#FF7345"/>
<path d="M172.88 344.84H174.437V343.472H172.88V344.84ZM178.622 344.84V345.866H175.544V347.792H174.437V345.866H170.387V344.84H171.809V342.473H174.437V341.402H172.511C172.142 342.041 171.71 342.617 171.287 343.04C171.08 342.86 170.621 342.5 170.36 342.347C171.17 341.663 171.863 340.511 172.25 339.35L173.339 339.629C173.258 339.881 173.159 340.124 173.042 340.367H178.127V341.402H175.544V342.473H177.92V343.472H175.544V344.84H178.622Z" fill="#FF7345"/>
<path d="M162.593 342.293V341.393H161.576V340.403H164.951V339.377H166.013V340.403H169.442V341.393H163.664V342.32C163.664 342.644 163.772 342.77 164.294 342.77H167.228C167.705 342.77 168.389 342.743 168.731 342.68C168.749 342.968 168.803 343.4 168.848 343.661C168.587 343.724 167.867 343.742 167.291 343.742H165.149C165.716 344.057 166.355 344.516 166.67 344.885L165.896 345.605C165.581 345.2 164.852 344.642 164.231 344.291L164.852 343.742H164.393C163.061 343.742 162.593 343.409 162.593 342.293ZM162.116 347.387L161.216 346.802C161.774 346.325 162.134 345.56 162.314 344.75L163.268 345.047C163.061 345.92 162.737 346.811 162.116 347.387ZM165.158 346.703H166.391C166.751 346.703 166.823 346.577 166.859 345.722C167.075 345.884 167.525 346.046 167.813 346.109C167.696 347.351 167.399 347.657 166.49 347.657H165.041C163.889 347.657 163.601 347.36 163.601 346.415V344.831H164.663V346.406C164.663 346.667 164.735 346.703 165.158 346.703ZM167.336 345.083L168.254 344.651C168.848 345.29 169.478 346.181 169.703 346.829L168.713 347.315C168.524 346.685 167.93 345.758 167.336 345.083Z" fill="#FF7345"/>
</g>
<defs>
<linearGradient id="paint0_linear_1_3016" x1="151.055" y1="106.047" x2="250.915" y2="146.633" gradientUnits="userSpaceOnUse">
<stop stop-color="#F56420"/>
<stop offset="1" stop-color="#FF9C5A"/>
</linearGradient>
<linearGradient id="paint1_linear_1_3016" x1="21.3115" y1="386.339" x2="21.3115" y2="334.479" gradientUnits="userSpaceOnUse">
<stop stop-color="#F56420"/>
<stop offset="1" stop-color="#FF9C5A"/>
</linearGradient>
<linearGradient id="paint2_linear_1_3016" x1="196.312" y1="58.339" x2="196.312" y2="6.4788" gradientUnits="userSpaceOnUse">
<stop stop-color="#F56420"/>
<stop offset="1" stop-color="#FF9C5A"/>
</linearGradient>
<linearGradient id="paint3_linear_1_3016" x1="96.3055" y1="27.5807" x2="122.236" y2="-17.3315" gradientUnits="userSpaceOnUse">
<stop stop-color="#F56420"/>
<stop offset="1" stop-color="#FF9C5A"/>
</linearGradient>
<linearGradient id="paint4_linear_1_3016" x1="-61.8879" y1="187.906" x2="42.2319" y2="160.007" gradientUnits="userSpaceOnUse">
<stop stop-color="#F56420"/>
<stop offset="1" stop-color="#FF9C5A"/>
</linearGradient>
<linearGradient id="paint5_linear_1_3016" x1="183.63" y1="296.18" x2="257.778" y2="374.418" gradientUnits="userSpaceOnUse">
<stop stop-color="#F56420"/>
<stop offset="1" stop-color="#FF9C5A"/>
</linearGradient>
<linearGradient id="paint6_linear_1_3016" x1="22.2962" y1="-14.5835" x2="35.7563" y2="35.6502" gradientUnits="userSpaceOnUse">
<stop stop-color="#F56420"/>
<stop offset="1" stop-color="#FF9C5A"/>
</linearGradient>
<linearGradient id="paint7_linear_1_3016" x1="21.1726" y1="354.239" x2="1.41029" y2="305.251" gradientUnits="userSpaceOnUse">
<stop stop-color="#F56420"/>
<stop offset="1" stop-color="#FF9C5A"/>
</linearGradient>
<linearGradient id="paint8_linear_1_3016" x1="195.222" y1="40.0523" x2="229.258" y2="-0.345749" gradientUnits="userSpaceOnUse">
<stop stop-color="#F56420"/>
<stop offset="1" stop-color="#FF9C5A"/>
</linearGradient>
<clipPath id="clip0_1_3016">
<rect width="246" height="364" fill="white"/>
</clipPath>
<clipPath id="clip1_1_3016">
<rect width="113.581" height="113.581" fill="white" transform="translate(131 159.222) rotate(-67.8815)"/>
</clipPath>
<clipPath id="clip2_1_3016">
<rect width="54.645" height="54.6451" fill="white" transform="translate(48.645 385.645) rotate(180)"/>
</clipPath>
<clipPath id="clip3_1_3016">
<rect width="54.645" height="54.6451" fill="white" transform="translate(223.645 57.6451) rotate(180)"/>
</clipPath>
<clipPath id="clip4_1_3016">
<rect width="54.645" height="54.6451" fill="white" transform="translate(120.324 40.6465) rotate(-150)"/>
</clipPath>
<clipPath id="clip5_1_3016">
<rect width="54.7985" height="54.7985" fill="white" transform="translate(-4 -6.81708) rotate(-15)"/>
</clipPath>
<clipPath id="clip6_1_3016">
<rect width="17" height="18.9966" fill="white" transform="translate(53 331)"/>
</clipPath>
</defs>
</svg>
