<svg width="364" height="220" viewBox="0 0 364 220" fill="none" xmlns="http://www.w3.org/2000/svg">
<g clip-path="url(#clip0_1_2824)">
<rect width="364" height="220" fill="#222222"/>
<g opacity="0.6" clip-path="url(#clip1_1_2824)">
<path d="M80.1457 47.84C86.2453 46.2056 91.8267 51.7871 90.1924 57.8867L65.7364 149.158C64.102 155.257 56.4777 157.3 52.0125 152.835L-14.8026 86.02C-19.2678 81.5548 -17.2249 73.9304 -11.1253 72.296L80.1457 47.84Z" stroke="url(#paint0_linear_1_2824)" stroke-width="1.13371"/>
</g>
<g opacity="0.6" clip-path="url(#clip2_1_2824)">
<path d="M-11.3636 51.8802C-13.9946 50.3612 -13.9946 46.5636 -11.3636 45.0446L28.0064 22.3143C30.6374 20.7952 33.9262 22.694 33.9262 25.7321L33.9262 71.1926C33.9262 74.2307 30.6374 76.1295 28.0063 74.6104L-11.3636 51.8802Z" stroke="url(#paint1_linear_1_2824)" stroke-width="1.13371"/>
</g>
<g opacity="0.6" clip-path="url(#clip3_1_2824)">
<path d="M331.66 165.729C329.029 164.21 329.029 160.413 331.66 158.894L371.03 136.163C373.661 134.644 376.949 136.543 376.949 139.581L376.949 185.042C376.949 188.08 373.661 189.979 371.03 188.46L331.66 165.729Z" stroke="url(#paint2_linear_1_2824)" stroke-width="1.13371"/>
</g>
<g opacity="0.6" clip-path="url(#clip4_1_2824)">
<path d="M326.859 116.442C325.34 113.811 327.239 110.522 330.277 110.522L375.738 110.522C378.776 110.522 380.674 113.811 379.155 116.442L356.425 155.812C354.906 158.443 351.109 158.443 349.589 155.812L326.859 116.442Z" stroke="url(#paint3_linear_1_2824)" stroke-width="1.13371"/>
</g>
<path opacity="0.8" d="M209.888 -46.4097C211.612 -52.8444 219.655 -54.9996 224.366 -50.2891L291.181 16.526C295.891 21.2365 293.736 29.2798 287.302 31.0039L196.03 55.4599C189.596 57.1841 183.708 51.2959 185.432 44.8612L209.888 -46.4097Z" fill="url(#paint4_linear_1_2824)" fill-opacity="0.6"/>
<path opacity="0.8" d="M59.1224 146.119C65.601 144.568 71.3291 150.612 69.4329 156.998L42.5369 247.58C40.6406 253.967 32.5424 255.905 27.96 251.07L-37.0383 182.486C-41.6208 177.651 -39.2505 169.668 -32.7719 168.117L59.1224 146.119Z" fill="url(#paint5_linear_1_2824)" fill-opacity="0.6"/>
<g opacity="0.6" clip-path="url(#clip5_1_2824)">
<path d="M320.656 19.6346C323.599 20.4231 324.585 24.1016 322.43 26.2559L290.195 58.4915C288.04 60.6458 284.362 59.6602 283.573 56.7174L271.774 12.6827C270.986 9.73985 273.679 7.04702 276.622 7.83553L320.656 19.6346Z" stroke="url(#paint6_linear_1_2824)" stroke-width="1.13371"/>
</g>
<path opacity="0.8" d="M54.226 -0.437662C51.9176 -2.74607 52.9738 -6.68777 56.1271 -7.53269L100.855 -19.5175C104.008 -20.3624 106.894 -17.4769 106.049 -14.3236L94.0641 30.4043C93.2191 33.5577 89.2774 34.6138 86.969 32.3054L54.226 -0.437662Z" fill="url(#paint7_linear_1_2824)" fill-opacity="0.6"/>
<path opacity="0.8" d="M132.459 218.635C129.392 217.516 128.687 213.497 131.189 211.401L166.686 181.665C169.189 179.569 173.022 180.968 173.586 184.183L181.59 229.792C182.154 233.008 179.026 235.628 175.959 234.509L132.459 218.635Z" fill="url(#paint8_linear_1_2824)" fill-opacity="0.6"/>
<g clip-path="url(#clip6_1_2824)">
<path d="M228.959 206.981L224.559 193.949C224.454 193.638 224.164 193.428 223.838 193.428H221.447V189.23C221.447 188.986 221.12 188.91 221.014 189.13L218.948 193.428H216.525C216.186 193.428 215.888 193.654 215.794 193.982L212.031 207.013C211.889 207.505 212.255 207.997 212.763 207.997H228.237C228.76 207.997 229.127 207.479 228.959 206.981Z" fill="#FF7345"/>
<path d="M228.195 207.818H220.519C220.172 207.818 219.866 207.586 219.77 207.25L216.125 194.507C215.999 194.069 216.325 193.632 216.778 193.632H223.847C224.081 193.632 224.289 193.782 224.365 194.004L228.79 206.978C228.93 207.39 228.627 207.818 228.195 207.818Z" fill="white"/>
<path d="M220.767 199.674C220.599 199.674 220.464 199.537 220.464 199.368V197.073C220.464 196.904 220.599 196.768 220.767 196.768C220.935 196.768 221.071 196.904 221.071 197.073V199.368C221.071 199.537 220.935 199.674 220.767 199.674Z" fill="#FF7345"/>
<path d="M223.132 199.674C222.964 199.674 222.828 199.537 222.828 199.368V197.073C222.828 196.904 222.964 196.768 223.132 196.768C223.299 196.768 223.435 196.904 223.435 197.073V199.368C223.435 199.537 223.299 199.674 223.132 199.674Z" fill="#FF7345"/>
<path d="M227.519 203.022H218.476V203.196H227.519V203.022Z" fill="#FF7345"/>
<path d="M223.776 206.386C223.929 206.386 224.053 206.261 224.053 206.107C224.053 205.952 223.929 205.827 223.776 205.827C223.623 205.827 223.499 205.952 223.499 206.107C223.499 206.261 223.623 206.386 223.776 206.386Z" fill="#FF7345"/>
<path d="M224.739 206.386C224.892 206.386 225.016 206.261 225.016 206.107C225.016 205.952 224.892 205.827 224.739 205.827C224.586 205.827 224.461 205.952 224.461 206.107C224.461 206.261 224.586 206.386 224.739 206.386Z" fill="#FF7345"/>
</g>
<path d="M311.625 203.051H313.18C313.201 203.166 313.245 203.271 313.312 203.366C313.382 203.461 313.466 203.541 313.564 203.608C313.665 203.671 313.779 203.72 313.905 203.755C314.035 203.79 314.168 203.807 314.305 203.807C314.518 203.807 314.711 203.76 314.883 203.665C315.058 203.567 315.198 203.429 315.303 203.25C315.408 203.068 315.461 202.856 315.461 202.615C315.461 202.387 315.41 202.187 315.308 202.016C315.21 201.844 315.073 201.711 314.898 201.616C314.723 201.522 314.529 201.474 314.315 201.474C314.126 201.474 313.963 201.506 313.826 201.569C313.69 201.632 313.576 201.709 313.485 201.8C313.397 201.888 313.333 201.972 313.291 202.052H311.772L312.056 197.828H316.68V199.184H313.406L313.27 200.823H313.354C313.403 200.746 313.488 200.66 313.611 200.565C313.734 200.467 313.893 200.383 314.089 200.313C314.289 200.243 314.525 200.208 314.799 200.208C315.208 200.208 315.588 200.299 315.939 200.481C316.289 200.66 316.571 200.923 316.785 201.27C317.002 201.616 317.11 202.045 317.11 202.557C317.11 203.082 316.991 203.538 316.753 203.923C316.515 204.308 316.184 204.606 315.76 204.816C315.34 205.026 314.851 205.131 314.294 205.131C313.891 205.131 313.527 205.079 313.201 204.974C312.879 204.869 312.601 204.722 312.366 204.532C312.135 204.34 311.954 204.117 311.825 203.865C311.699 203.613 311.632 203.341 311.625 203.051Z" fill="#FF7345"/>
<path d="M306.739 200.066H305.115V199.972C305.115 199.695 305.166 199.424 305.267 199.157C305.372 198.888 305.528 198.644 305.735 198.427C305.945 198.206 306.211 198.031 306.534 197.902C306.859 197.769 307.245 197.702 307.69 197.702C308.211 197.702 308.665 197.791 309.05 197.97C309.439 198.149 309.739 198.392 309.949 198.7C310.162 199.005 310.269 199.35 310.269 199.735C310.269 200.082 310.203 200.389 310.07 200.655C309.94 200.918 309.777 201.157 309.581 201.375C309.385 201.592 309.189 201.805 308.993 202.016L307.548 203.555V203.634H310.385V205H305.215V203.939L307.789 201.275C307.915 201.145 308.038 201.01 308.157 200.87C308.28 200.73 308.38 200.581 308.457 200.424C308.537 200.262 308.577 200.091 308.577 199.909C308.577 199.744 308.537 199.599 308.457 199.473C308.376 199.343 308.266 199.24 308.126 199.163C307.989 199.086 307.831 199.047 307.653 199.047C307.464 199.047 307.299 199.089 307.159 199.173C307.022 199.257 306.917 199.369 306.844 199.509C306.774 199.646 306.739 199.795 306.739 199.956C306.739 199.977 306.739 199.998 306.739 200.019C306.739 200.037 306.739 200.052 306.739 200.066Z" fill="#FF7345"/>
<path d="M299.929 201.238V201.58C299.929 202.035 299.973 202.425 300.061 202.751C300.152 203.073 300.279 203.322 300.444 203.497C300.612 203.669 300.81 203.755 301.038 203.755C301.272 203.755 301.472 203.669 301.637 203.497C301.805 203.322 301.933 203.073 302.02 202.751C302.108 202.425 302.152 202.035 302.152 201.58V201.238C302.152 200.786 302.108 200.399 302.02 200.077C301.933 199.751 301.805 199.504 301.637 199.336C301.472 199.164 301.272 199.079 301.038 199.079C300.807 199.079 300.607 199.164 300.439 199.336C300.274 199.504 300.148 199.749 300.061 200.072C299.973 200.394 299.929 200.783 299.929 201.238ZM298.201 201.585V201.233C298.201 200.522 298.316 199.902 298.547 199.373C298.779 198.84 299.108 198.429 299.535 198.138C299.962 197.847 300.47 197.702 301.059 197.702C301.651 197.702 302.157 197.846 302.577 198.133C302.998 198.42 303.32 198.828 303.544 199.357C303.768 199.886 303.88 200.511 303.88 201.233V201.585C303.88 202.121 303.814 202.606 303.681 203.04C303.548 203.475 303.357 203.848 303.108 204.159C302.859 204.471 302.56 204.711 302.209 204.879C301.859 205.047 301.463 205.131 301.022 205.131C300.437 205.131 299.934 204.986 299.514 204.695C299.094 204.405 298.77 203.995 298.542 203.466C298.314 202.933 298.201 202.306 298.201 201.585Z" fill="#FF7345"/>
<path d="M293.404 200.066H291.78V199.972C291.78 199.695 291.831 199.424 291.932 199.157C292.037 198.888 292.193 198.644 292.4 198.427C292.61 198.206 292.876 198.031 293.199 197.902C293.524 197.769 293.91 197.702 294.355 197.702C294.876 197.702 295.33 197.791 295.715 197.97C296.104 198.149 296.404 198.392 296.614 198.7C296.828 199.005 296.934 199.35 296.934 199.735C296.934 200.082 296.868 200.389 296.735 200.655C296.605 200.918 296.442 201.157 296.246 201.375C296.05 201.592 295.854 201.805 295.658 202.016L294.213 203.555V203.634H297.05V205H291.88V203.939L294.454 201.275C294.58 201.145 294.703 201.01 294.822 200.87C294.945 200.73 295.045 200.581 295.122 200.424C295.202 200.262 295.243 200.091 295.243 199.909C295.243 199.744 295.202 199.599 295.122 199.473C295.041 199.343 294.931 199.24 294.791 199.163C294.654 199.086 294.496 199.047 294.318 199.047C294.129 199.047 293.964 199.089 293.824 199.173C293.687 199.257 293.582 199.369 293.509 199.509C293.439 199.646 293.404 199.795 293.404 199.956C293.404 199.977 293.404 199.998 293.404 200.019C293.404 200.037 293.404 200.052 293.404 200.066Z" fill="#FF7345"/>
<path d="M285.937 197.828C286.491 197.828 286.951 197.942 287.319 198.17C287.691 198.394 287.971 198.695 288.16 199.073C288.349 199.448 288.444 199.861 288.444 200.313C288.444 200.769 288.347 201.184 288.155 201.559C287.966 201.93 287.684 202.226 287.309 202.446C286.934 202.664 286.47 202.772 285.916 202.772H284.634V205H282.911V197.828H285.937ZM286.694 200.313C286.694 199.938 286.591 199.651 286.384 199.452C286.177 199.252 285.895 199.152 285.538 199.152H284.629V201.474H285.538C285.776 201.474 285.981 201.429 286.153 201.338C286.328 201.247 286.461 201.115 286.552 200.944C286.647 200.769 286.694 200.558 286.694 200.313Z" fill="#FF7345"/>
<path d="M276.17 202.709H277.825C277.828 202.895 277.865 203.054 277.935 203.187C278.005 203.32 278.105 203.425 278.235 203.503C278.364 203.576 278.515 203.613 278.687 203.613C278.991 203.613 279.214 203.525 279.354 203.35C279.494 203.172 279.564 202.921 279.564 202.599V197.828H281.293V202.588C281.293 203.425 281.062 204.059 280.599 204.49C280.14 204.918 279.508 205.131 278.702 205.131C278.268 205.131 277.89 205.067 277.568 204.937C277.249 204.804 276.986 204.623 276.779 204.396C276.573 204.165 276.419 203.905 276.317 203.618C276.219 203.327 276.17 203.024 276.17 202.709Z" fill="#FF7345"/>
<path d="M273.385 205V199.389H275.061V205H273.385ZM273.222 197.786C273.222 197.53 273.313 197.325 273.496 197.171C273.678 197.017 273.919 196.94 274.221 196.94C274.518 196.94 274.758 197.017 274.94 197.171C275.126 197.325 275.219 197.53 275.219 197.786C275.219 198.038 275.128 198.241 274.946 198.396C274.764 198.546 274.522 198.621 274.221 198.621C273.923 198.621 273.681 198.546 273.496 198.396C273.313 198.241 273.222 198.038 273.222 197.786Z" fill="#FF7345"/>
<path d="M268.73 205.084C268.184 205.084 267.737 204.933 267.39 204.632C267.047 204.327 266.875 203.907 266.875 203.371C266.875 202.86 267.047 202.452 267.39 202.147C267.737 201.839 268.236 201.685 268.888 201.685H270.196V201.217C270.196 200.989 270.126 200.818 269.986 200.702C269.846 200.587 269.656 200.529 269.418 200.529C269.261 200.529 269.128 200.553 269.019 200.602C268.91 200.648 268.825 200.713 268.761 200.797C268.702 200.881 268.665 200.977 268.651 201.086H267.08C267.091 200.861 267.14 200.644 267.227 200.434C267.315 200.22 267.45 200.03 267.632 199.861C267.814 199.69 268.054 199.555 268.352 199.457C268.649 199.355 269.014 199.305 269.445 199.305C269.889 199.305 270.292 199.368 270.653 199.494C271.017 199.62 271.306 199.826 271.52 200.114C271.737 200.401 271.846 200.786 271.846 201.27V205H270.275V204.312H270.196C270.133 204.438 270.038 204.56 269.912 204.68C269.79 204.799 269.63 204.897 269.434 204.974C269.241 205.047 269.007 205.084 268.73 205.084ZM269.308 203.912C269.466 203.912 269.611 203.881 269.744 203.818C269.881 203.751 269.989 203.662 270.07 203.55C270.154 203.434 270.196 203.301 270.196 203.151V202.604H269.329C269.066 202.604 268.867 202.664 268.73 202.783C268.593 202.902 268.525 203.056 268.525 203.245C268.525 203.469 268.604 203.637 268.761 203.75C268.923 203.858 269.105 203.912 269.308 203.912Z" fill="#FF7345"/>
<path d="M261.154 201.075C261.154 200.644 261.262 200.299 261.479 200.04C261.7 199.777 261.989 199.586 262.346 199.467C262.707 199.348 263.096 199.289 263.513 199.289C263.944 199.289 264.327 199.352 264.663 199.478C265 199.604 265.262 199.793 265.451 200.045C265.644 200.294 265.74 200.604 265.74 200.975H264.28C264.269 200.874 264.232 200.779 264.169 200.692C264.11 200.601 264.024 200.527 263.912 200.471C263.8 200.411 263.658 200.382 263.486 200.382C263.245 200.382 263.059 200.434 262.929 200.539C262.8 200.644 262.735 200.781 262.735 200.949C262.735 201.079 262.784 201.184 262.882 201.264C262.98 201.341 263.105 201.404 263.255 201.453C263.409 201.499 263.572 201.536 263.744 201.564C263.915 201.588 264.075 201.611 264.222 201.632C264.565 201.688 264.865 201.779 265.12 201.905C265.376 202.028 265.574 202.196 265.714 202.41C265.858 202.623 265.93 202.897 265.93 203.229C265.93 203.618 265.832 203.953 265.635 204.233C265.439 204.513 265.154 204.729 264.779 204.879C264.408 205.03 263.954 205.105 263.418 205.105C262.903 205.105 262.469 205.033 262.115 204.89C261.761 204.743 261.492 204.541 261.306 204.285C261.124 204.03 261.033 203.735 261.033 203.403H262.656C262.67 203.518 262.711 203.622 262.777 203.713C262.844 203.804 262.936 203.876 263.056 203.928C263.178 203.977 263.325 204.002 263.497 204.002C263.69 204.002 263.845 203.977 263.965 203.928C264.084 203.876 264.171 203.806 264.227 203.718C264.283 203.627 264.311 203.529 264.311 203.424C264.311 203.263 264.245 203.144 264.112 203.066C263.979 202.986 263.807 202.926 263.597 202.888C263.387 202.846 263.164 202.802 262.929 202.756C262.604 202.693 262.306 202.601 262.036 202.478C261.767 202.355 261.551 202.182 261.39 201.958C261.232 201.734 261.154 201.439 261.154 201.075Z" fill="#FF7345"/>
<path d="M256.761 205.084C256.215 205.084 255.768 204.933 255.421 204.632C255.078 204.327 254.906 203.907 254.906 203.371C254.906 202.86 255.078 202.452 255.421 202.147C255.768 201.839 256.267 201.685 256.919 201.685H258.227V201.217C258.227 200.989 258.157 200.818 258.017 200.702C257.877 200.587 257.687 200.529 257.449 200.529C257.292 200.529 257.159 200.553 257.05 200.602C256.941 200.648 256.856 200.713 256.792 200.797C256.733 200.881 256.696 200.977 256.682 201.086H255.111C255.122 200.861 255.171 200.644 255.258 200.434C255.346 200.22 255.481 200.03 255.663 199.861C255.845 199.69 256.085 199.555 256.383 199.457C256.68 199.355 257.045 199.305 257.476 199.305C257.92 199.305 258.323 199.368 258.684 199.494C259.048 199.62 259.337 199.826 259.551 200.114C259.768 200.401 259.877 200.786 259.877 201.27V205H258.306V204.312H258.227C258.164 204.438 258.069 204.56 257.943 204.68C257.821 204.799 257.661 204.897 257.465 204.974C257.272 205.047 257.038 205.084 256.761 205.084ZM257.339 203.912C257.497 203.912 257.642 203.881 257.775 203.818C257.912 203.751 258.02 203.662 258.101 203.55C258.185 203.434 258.227 203.301 258.227 203.151V202.604H257.36C257.097 202.604 256.898 202.664 256.761 202.783C256.624 202.902 256.556 203.056 256.556 203.245C256.556 203.469 256.635 203.637 256.792 203.75C256.954 203.858 257.136 203.912 257.339 203.912Z" fill="#FF7345"/>
<path d="M250.309 199.326C250.572 199.326 250.81 199.364 251.023 199.441C251.237 199.515 251.418 199.621 251.565 199.762C251.715 199.902 251.826 200.066 251.896 200.255H251.974V197.45H253.656V205H251.99V204.102H251.911C251.866 204.245 251.794 204.377 251.696 204.496C251.598 204.611 251.477 204.711 251.333 204.795C251.193 204.879 251.036 204.944 250.861 204.989C250.685 205.035 250.498 205.058 250.298 205.058C249.882 205.058 249.519 204.96 249.211 204.764C248.903 204.564 248.663 204.275 248.491 203.897C248.323 203.518 248.239 203.061 248.239 202.525V201.853C248.239 201.317 248.325 200.861 248.496 200.487C248.668 200.112 248.908 199.825 249.216 199.625C249.528 199.425 249.892 199.326 250.309 199.326ZM250.955 200.629C250.759 200.629 250.586 200.679 250.435 200.781C250.288 200.882 250.172 201.033 250.088 201.233C250.008 201.432 249.967 201.678 249.967 201.968V202.42C249.967 202.711 250.008 202.958 250.088 203.161C250.172 203.361 250.29 203.511 250.44 203.613C250.591 203.714 250.766 203.765 250.966 203.765C251.165 203.765 251.34 203.714 251.491 203.613C251.642 203.511 251.759 203.364 251.843 203.172C251.931 202.975 251.974 202.737 251.974 202.457V201.895C251.974 201.625 251.931 201.396 251.843 201.206C251.756 201.017 251.635 200.874 251.481 200.776C251.326 200.678 251.151 200.629 250.955 200.629Z" fill="#FF7345"/>
<path d="M246.978 199.389V205H245.354V204.059H245.27C245.221 204.207 245.13 204.359 244.997 204.517C244.864 204.674 244.685 204.809 244.461 204.921C244.237 205.03 243.96 205.084 243.631 205.084C243.26 205.084 242.934 205.016 242.654 204.879C242.377 204.739 242.161 204.525 242.007 204.238C241.853 203.947 241.776 203.578 241.776 203.13V199.389H243.452V202.699C243.452 202.968 243.496 203.177 243.584 203.324C243.671 203.468 243.781 203.567 243.915 203.623C244.051 203.676 244.19 203.702 244.33 203.702C244.505 203.702 244.666 203.662 244.813 203.581C244.96 203.497 245.079 203.376 245.17 203.219C245.261 203.061 245.307 202.872 245.307 202.651V199.389H246.978Z" fill="#FF7345"/>
<path d="M240.957 197.828L238.466 200.939L241.051 205H239.013L237.205 202.079L236.564 202.83V205H234.835V197.828H236.564V200.886H236.638L239.107 197.828H240.957Z" fill="#FF7345"/>
<path d="M340.844 200.077H344.219C343.526 199.555 342.905 198.97 342.491 198.412C342.104 198.961 341.528 199.546 340.844 200.077ZM340.403 201.058V200.401C339.926 200.743 339.404 201.049 338.882 201.301C338.756 201.04 338.477 200.635 338.252 200.401C339.782 199.726 341.213 198.448 341.888 197.386H343.004C343.958 198.709 345.389 199.735 346.811 200.239C346.541 200.518 346.307 200.905 346.118 201.22C345.623 200.986 345.101 200.689 344.606 200.347V201.058H340.403ZM338.81 202.795V201.805H346.253V202.795H342.221C341.96 203.326 341.663 203.884 341.393 204.388C342.257 204.361 343.184 204.325 344.102 204.289C343.823 203.965 343.517 203.641 343.22 203.371L344.165 202.876C344.966 203.578 345.803 204.514 346.226 205.189L345.227 205.792C345.137 205.621 345.011 205.432 344.867 205.234C342.752 205.351 340.529 205.441 338.999 205.513L338.855 204.469L340.214 204.424C340.457 203.92 340.709 203.326 340.898 202.795H338.81Z" fill="#FF7345"/>
<path d="M331.88 202.84H333.437V201.472H331.88V202.84ZM337.622 202.84V203.866H334.544V205.792H333.437V203.866H329.387V202.84H330.809V200.473H333.437V199.402H331.511C331.142 200.041 330.71 200.617 330.287 201.04C330.08 200.86 329.621 200.5 329.36 200.347C330.17 199.663 330.863 198.511 331.25 197.35L332.339 197.629C332.258 197.881 332.159 198.124 332.042 198.367H337.127V199.402H334.544V200.473H336.92V201.472H334.544V202.84H337.622Z" fill="#FF7345"/>
<path d="M321.593 200.293V199.393H320.576V198.403H323.951V197.377H325.013V198.403H328.442V199.393H322.664V200.32C322.664 200.644 322.772 200.77 323.294 200.77H326.228C326.705 200.77 327.389 200.743 327.731 200.68C327.749 200.968 327.803 201.4 327.848 201.661C327.587 201.724 326.867 201.742 326.291 201.742H324.149C324.716 202.057 325.355 202.516 325.67 202.885L324.896 203.605C324.581 203.2 323.852 202.642 323.231 202.291L323.852 201.742H323.393C322.061 201.742 321.593 201.409 321.593 200.293ZM321.116 205.387L320.216 204.802C320.774 204.325 321.134 203.56 321.314 202.75L322.268 203.047C322.061 203.92 321.737 204.811 321.116 205.387ZM324.158 204.703H325.391C325.751 204.703 325.823 204.577 325.859 203.722C326.075 203.884 326.525 204.046 326.813 204.109C326.696 205.351 326.399 205.657 325.49 205.657H324.041C322.889 205.657 322.601 205.36 322.601 204.415V202.831H323.663V204.406C323.663 204.667 323.735 204.703 324.158 204.703ZM326.336 203.083L327.254 202.651C327.848 203.29 328.478 204.181 328.703 204.829L327.713 205.315C327.524 204.685 326.93 203.758 326.336 203.083Z" fill="#FF7345"/>
<g opacity="0.6" clip-path="url(#clip7_1_2824)">
<path d="M109.863 195.197C109.608 192.17 112.725 190.001 115.474 191.293L156.619 210.626C159.369 211.918 159.688 215.702 157.195 217.438L119.879 243.403C117.385 245.138 113.948 243.523 113.693 240.496L109.863 195.197Z" stroke="url(#paint9_linear_1_2824)" stroke-width="1.13371"/>
</g>
</g>
<defs>
<linearGradient id="paint0_linear_1_2824" x1="94.5071" y1="43.5252" x2="18.2862" y2="119.746" gradientUnits="userSpaceOnUse">
<stop stop-color="#F56420"/>
<stop offset="1" stop-color="#FF9C5A"/>
</linearGradient>
<linearGradient id="paint1_linear_1_2824" x1="-17.7171" y1="48.4624" x2="34.143" y2="48.4624" gradientUnits="userSpaceOnUse">
<stop stop-color="#F56420"/>
<stop offset="1" stop-color="#FF9C5A"/>
</linearGradient>
<linearGradient id="paint2_linear_1_2824" x1="325.306" y1="162.311" x2="377.166" y2="162.311" gradientUnits="userSpaceOnUse">
<stop stop-color="#F56420"/>
<stop offset="1" stop-color="#FF9C5A"/>
</linearGradient>
<linearGradient id="paint3_linear_1_2824" x1="323.066" y1="110.306" x2="367.978" y2="136.236" gradientUnits="userSpaceOnUse">
<stop stop-color="#F56420"/>
<stop offset="1" stop-color="#FF9C5A"/>
</linearGradient>
<linearGradient id="paint4_linear_1_2824" x1="213.767" y1="-60.8878" x2="241.666" y2="43.2319" gradientUnits="userSpaceOnUse">
<stop stop-color="#F56420"/>
<stop offset="1" stop-color="#FF9C5A"/>
</linearGradient>
<linearGradient id="paint5_linear_1_2824" x1="73.6993" y1="142.63" x2="-4.53919" y2="216.778" gradientUnits="userSpaceOnUse">
<stop stop-color="#F56420"/>
<stop offset="1" stop-color="#FF9C5A"/>
</linearGradient>
<linearGradient id="paint6_linear_1_2824" x1="327.698" y1="21.2962" x2="277.464" y2="34.7563" gradientUnits="userSpaceOnUse">
<stop stop-color="#F56420"/>
<stop offset="1" stop-color="#FF9C5A"/>
</linearGradient>
<linearGradient id="paint7_linear_1_2824" x1="49.032" y1="-5.63159" x2="100.056" y2="8.04037" gradientUnits="userSpaceOnUse">
<stop stop-color="#F56420"/>
<stop offset="1" stop-color="#FF9C5A"/>
</linearGradient>
<linearGradient id="paint8_linear_1_2824" x1="125.559" y1="216.117" x2="177.588" y2="206.988" gradientUnits="userSpaceOnUse">
<stop stop-color="#F56420"/>
<stop offset="1" stop-color="#FF9C5A"/>
</linearGradient>
<linearGradient id="paint9_linear_1_2824" x1="109.04" y1="188.03" x2="138.661" y2="230.598" gradientUnits="userSpaceOnUse">
<stop stop-color="#F56420"/>
<stop offset="1" stop-color="#FF9C5A"/>
</linearGradient>
<clipPath id="clip0_1_2824">
<rect width="364" height="220" fill="white"/>
</clipPath>
<clipPath id="clip1_1_2824">
<rect width="113.581" height="113.581" fill="white" transform="translate(53.3141 4.3719) rotate(45)"/>
</clipPath>
<clipPath id="clip2_1_2824">
<rect width="54.645" height="54.6451" fill="white" transform="translate(-17.0233 75.7959) rotate(-90)"/>
</clipPath>
<clipPath id="clip3_1_2824">
<rect width="54.645" height="54.6451" fill="white" transform="translate(326 189.645) rotate(-90)"/>
</clipPath>
<clipPath id="clip4_1_2824">
<rect width="54.645" height="54.6451" fill="white" transform="translate(310 134.324) rotate(-60)"/>
</clipPath>
<clipPath id="clip5_1_2824">
<rect width="54.7985" height="54.7985" fill="white" transform="translate(319.931 -5) rotate(75)"/>
</clipPath>
<clipPath id="clip6_1_2824">
<rect width="17" height="18.9966" fill="white" transform="translate(212 189)"/>
</clipPath>
<clipPath id="clip7_1_2824">
<rect width="54.645" height="54.6451" fill="white" transform="translate(87 204.212) rotate(-34.8317)"/>
</clipPath>
</defs>
</svg>
