<svg width="220" height="364" viewBox="0 0 220 364" fill="none" xmlns="http://www.w3.org/2000/svg">
<g clip-path="url(#clip0_1_2954)">
<rect width="220" height="364" fill="#222222"/>
<g opacity="0.6" clip-path="url(#clip1_1_2954)">
<path d="M150.615 117.6C146.737 112.616 149.709 105.304 155.964 104.438L249.563 91.4809C255.818 90.6149 260.664 96.845 258.287 102.695L222.709 190.232C220.331 196.082 212.512 197.164 208.635 192.18L150.615 117.6Z" stroke="url(#paint0_linear_1_2954)" stroke-width="1.13371"/>
</g>
<g opacity="0.6" clip-path="url(#clip2_1_2954)">
<path d="M14.7293 379.985C13.2102 382.616 9.41267 382.616 7.89363 379.985L-14.8366 340.615C-16.3557 337.984 -14.4569 334.696 -11.4188 334.696L34.0417 334.696C37.0798 334.696 38.9785 337.984 37.4595 340.615L14.7293 379.985Z" stroke="url(#paint1_linear_1_2954)" stroke-width="1.13371"/>
</g>
<g opacity="0.6" clip-path="url(#clip3_1_2954)">
<path d="M189.729 51.9853C188.21 54.6164 184.413 54.6164 182.894 51.9853L160.163 12.6154C158.644 9.98436 160.543 6.69559 163.581 6.69559L209.042 6.69559C212.08 6.69559 213.979 9.98435 212.46 12.6155L189.729 51.9853Z" stroke="url(#paint2_linear_1_2954)" stroke-width="1.13371"/>
</g>
<g opacity="0.6" clip-path="url(#clip4_1_2954)">
<path d="M92.4422 23.7872C89.8111 25.3062 86.5224 23.4074 86.5224 20.3694L86.5223 -25.0911C86.5223 -28.1292 89.8111 -30.028 92.4422 -28.5089L131.812 -5.77868C134.443 -4.25964 134.443 -0.462086 131.812 1.057L92.4422 23.7872Z" stroke="url(#paint3_linear_1_2954)" stroke-width="1.13371"/>
</g>
<path opacity="0.8" d="M-57.4098 191.785C-63.8445 190.061 -65.9997 182.017 -61.2892 177.307L5.52591 110.492C10.2364 105.781 18.2797 107.937 20.0038 114.371L44.4599 205.642C46.184 212.077 40.2959 217.965 33.8611 216.241L-57.4098 191.785Z" fill="url(#paint4_linear_1_2954)" fill-opacity="0.6"/>
<path opacity="0.8" d="M177.119 310.757C175.568 304.278 181.612 298.55 187.998 300.446L278.58 327.342C284.967 329.238 286.905 337.337 282.07 341.919L213.486 406.917C208.651 411.5 200.668 409.13 199.117 402.651L177.119 310.757Z" fill="url(#paint5_linear_1_2954)" fill-opacity="0.6"/>
<g opacity="0.6" clip-path="url(#clip5_1_2954)">
<path d="M10.6346 -7.54217C11.4232 -10.485 15.1016 -11.4706 17.2559 -9.31633L49.4916 22.9193C51.6459 25.0736 50.6602 28.752 47.7174 29.5405L3.6827 41.3396C0.739898 42.1281 -1.95293 39.4353 -1.16442 36.4925L10.6346 -7.54217Z" stroke="url(#paint6_linear_1_2954)" stroke-width="1.13371"/>
</g>
<path opacity="0.8" d="M12.1987 346.966C11.7427 350.198 7.95826 351.725 5.3868 349.714L-31.0875 321.186C-33.6589 319.174 -33.0888 315.134 -30.0613 313.912L12.8818 296.589C15.9094 295.368 19.1237 297.882 18.6676 301.114L12.1987 346.966Z" fill="url(#paint7_linear_1_2954)" fill-opacity="0.6"/>
<path opacity="0.8" d="M192.13 37.5537C189.06 38.6642 185.939 36.0349 186.512 32.821L194.644 -12.7651C195.217 -15.979 199.055 -17.3669 201.551 -15.2635L236.964 14.5719C239.461 16.6753 238.744 20.6926 235.674 21.8031L192.13 37.5537Z" fill="url(#paint8_linear_1_2954)" fill-opacity="0.6"/>
<g clip-path="url(#clip6_1_2954)">
<path d="M59.9588 348.981L55.559 335.949C55.4539 335.638 55.1637 335.428 54.8375 335.428H52.4475V331.23C52.4475 330.986 52.1201 330.91 52.0145 331.13L49.9485 335.428H47.5255C47.1865 335.428 46.8883 335.654 46.7936 335.982L43.0308 349.013C42.8889 349.505 43.2547 349.997 43.7627 349.997H59.2373C59.7595 349.997 60.1271 349.479 59.9588 348.981Z" fill="#FF7345"/>
<path d="M59.1952 349.818H51.5194C51.1719 349.818 50.8664 349.586 50.7702 349.25L47.1247 336.507C46.9994 336.069 47.3255 335.632 47.7778 335.632H54.8471C55.0807 335.632 55.2886 335.782 55.3646 336.004L59.7899 348.978C59.9303 349.39 59.627 349.818 59.1952 349.818Z" fill="white"/>
<path d="M51.7671 341.674C51.5995 341.674 51.4636 341.537 51.4636 341.368V339.073C51.4636 338.904 51.5995 338.768 51.7671 338.768C51.9347 338.768 52.0705 338.904 52.0705 339.073V341.368C52.0705 341.537 51.9347 341.674 51.7671 341.674Z" fill="#FF7345"/>
<path d="M54.1317 341.674C53.9641 341.674 53.8282 341.537 53.8282 341.368V339.073C53.8282 338.904 53.9641 338.768 54.1317 338.768C54.2993 338.768 54.4351 338.904 54.4351 339.073V341.368C54.4351 341.537 54.2993 341.674 54.1317 341.674Z" fill="#FF7345"/>
<path d="M58.5185 345.022H49.4761V345.196H58.5185V345.022Z" fill="#FF7345"/>
<path d="M54.7762 348.386C54.9293 348.386 55.0534 348.261 55.0534 348.107C55.0534 347.952 54.9293 347.827 54.7762 347.827C54.623 347.827 54.4989 347.952 54.4989 348.107C54.4989 348.261 54.623 348.386 54.7762 348.386Z" fill="#FF7345"/>
<path d="M55.7387 348.386C55.8918 348.386 56.016 348.261 56.016 348.107C56.016 347.952 55.8918 347.827 55.7387 347.827C55.5856 347.827 55.4614 347.952 55.4614 348.107C55.4614 348.261 55.5856 348.386 55.7387 348.386Z" fill="#FF7345"/>
</g>
<path d="M142.625 345.051H144.18C144.201 345.166 144.245 345.271 144.312 345.366C144.382 345.461 144.466 345.541 144.564 345.608C144.665 345.671 144.779 345.72 144.905 345.755C145.035 345.79 145.168 345.807 145.305 345.807C145.518 345.807 145.711 345.76 145.883 345.665C146.058 345.567 146.198 345.429 146.303 345.25C146.408 345.068 146.461 344.856 146.461 344.615C146.461 344.387 146.41 344.187 146.308 344.016C146.21 343.844 146.073 343.711 145.898 343.616C145.723 343.522 145.529 343.474 145.315 343.474C145.126 343.474 144.963 343.506 144.826 343.569C144.69 343.632 144.576 343.709 144.485 343.8C144.397 343.888 144.333 343.972 144.291 344.052H142.772L143.056 339.828H147.68V341.184H144.406L144.27 342.823H144.354C144.403 342.746 144.488 342.66 144.611 342.565C144.734 342.467 144.893 342.383 145.089 342.313C145.289 342.243 145.525 342.208 145.799 342.208C146.208 342.208 146.588 342.299 146.939 342.481C147.289 342.66 147.571 342.923 147.785 343.27C148.002 343.616 148.11 344.045 148.11 344.557C148.11 345.082 147.991 345.538 147.753 345.923C147.515 346.308 147.184 346.606 146.76 346.816C146.34 347.026 145.851 347.131 145.294 347.131C144.891 347.131 144.527 347.079 144.201 346.974C143.879 346.869 143.601 346.722 143.366 346.532C143.135 346.34 142.954 346.117 142.825 345.865C142.699 345.613 142.632 345.341 142.625 345.051Z" fill="#FF7345"/>
<path d="M137.739 342.066H136.115V341.972C136.115 341.695 136.166 341.424 136.267 341.157C136.372 340.888 136.528 340.644 136.735 340.427C136.945 340.206 137.211 340.031 137.534 339.902C137.859 339.769 138.245 339.702 138.69 339.702C139.211 339.702 139.665 339.791 140.05 339.97C140.439 340.149 140.739 340.392 140.949 340.7C141.162 341.005 141.269 341.35 141.269 341.735C141.269 342.082 141.203 342.389 141.07 342.655C140.94 342.918 140.777 343.157 140.581 343.375C140.385 343.592 140.189 343.805 139.993 344.016L138.548 345.555V345.634H141.385V347H136.215V345.939L138.789 343.275C138.915 343.145 139.038 343.01 139.157 342.87C139.28 342.73 139.38 342.581 139.457 342.424C139.537 342.262 139.577 342.091 139.577 341.909C139.577 341.744 139.537 341.599 139.457 341.473C139.376 341.343 139.266 341.24 139.126 341.163C138.989 341.086 138.831 341.047 138.653 341.047C138.464 341.047 138.299 341.089 138.159 341.173C138.022 341.257 137.917 341.369 137.844 341.509C137.774 341.646 137.739 341.795 137.739 341.956C137.739 341.977 137.739 341.998 137.739 342.019C137.739 342.037 137.739 342.052 137.739 342.066Z" fill="#FF7345"/>
<path d="M130.929 343.238V343.58C130.929 344.035 130.973 344.425 131.061 344.751C131.152 345.073 131.279 345.322 131.444 345.497C131.612 345.669 131.81 345.755 132.038 345.755C132.272 345.755 132.472 345.669 132.637 345.497C132.805 345.322 132.933 345.073 133.02 344.751C133.108 344.425 133.152 344.035 133.152 343.58V343.238C133.152 342.786 133.108 342.399 133.02 342.077C132.933 341.751 132.805 341.504 132.637 341.336C132.472 341.164 132.272 341.079 132.038 341.079C131.807 341.079 131.607 341.164 131.439 341.336C131.274 341.504 131.148 341.749 131.061 342.072C130.973 342.394 130.929 342.783 130.929 343.238ZM129.201 343.585V343.233C129.201 342.522 129.316 341.902 129.547 341.373C129.779 340.84 130.108 340.429 130.535 340.138C130.962 339.847 131.47 339.702 132.059 339.702C132.651 339.702 133.157 339.846 133.577 340.133C133.998 340.42 134.32 340.828 134.544 341.357C134.768 341.886 134.88 342.511 134.88 343.233V343.585C134.88 344.121 134.814 344.606 134.681 345.04C134.548 345.475 134.357 345.848 134.108 346.159C133.859 346.471 133.56 346.711 133.209 346.879C132.859 347.047 132.463 347.131 132.022 347.131C131.437 347.131 130.934 346.986 130.514 346.695C130.094 346.405 129.77 345.995 129.542 345.466C129.314 344.933 129.201 344.306 129.201 343.585Z" fill="#FF7345"/>
<path d="M124.404 342.066H122.78V341.972C122.78 341.695 122.831 341.424 122.932 341.157C123.037 340.888 123.193 340.644 123.4 340.427C123.61 340.206 123.876 340.031 124.199 339.902C124.524 339.769 124.91 339.702 125.355 339.702C125.876 339.702 126.33 339.791 126.715 339.97C127.104 340.149 127.404 340.392 127.614 340.7C127.828 341.005 127.934 341.35 127.934 341.735C127.934 342.082 127.868 342.389 127.735 342.655C127.605 342.918 127.442 343.157 127.246 343.375C127.05 343.592 126.854 343.805 126.658 344.016L125.213 345.555V345.634H128.05V347H122.88V345.939L125.454 343.275C125.58 343.145 125.703 343.01 125.822 342.87C125.945 342.73 126.045 342.581 126.122 342.424C126.202 342.262 126.243 342.091 126.243 341.909C126.243 341.744 126.202 341.599 126.122 341.473C126.041 341.343 125.931 341.24 125.791 341.163C125.654 341.086 125.496 341.047 125.318 341.047C125.129 341.047 124.964 341.089 124.824 341.173C124.687 341.257 124.582 341.369 124.509 341.509C124.439 341.646 124.404 341.795 124.404 341.956C124.404 341.977 124.404 341.998 124.404 342.019C124.404 342.037 124.404 342.052 124.404 342.066Z" fill="#FF7345"/>
<path d="M116.937 339.828C117.491 339.828 117.951 339.942 118.319 340.17C118.691 340.394 118.971 340.695 119.16 341.073C119.349 341.448 119.444 341.861 119.444 342.313C119.444 342.769 119.347 343.184 119.155 343.559C118.966 343.93 118.684 344.226 118.309 344.446C117.934 344.664 117.47 344.772 116.916 344.772H115.634V347H113.911V339.828H116.937ZM117.694 342.313C117.694 341.938 117.591 341.651 117.384 341.452C117.177 341.252 116.895 341.152 116.538 341.152H115.629V343.474H116.538C116.776 343.474 116.981 343.429 117.153 343.338C117.328 343.247 117.461 343.115 117.552 342.944C117.647 342.769 117.694 342.558 117.694 342.313Z" fill="#FF7345"/>
<path d="M107.17 344.709H108.825C108.828 344.895 108.865 345.054 108.935 345.187C109.005 345.32 109.105 345.425 109.235 345.503C109.364 345.576 109.515 345.613 109.687 345.613C109.991 345.613 110.214 345.525 110.354 345.35C110.494 345.172 110.564 344.921 110.564 344.599V339.828H112.293V344.588C112.293 345.425 112.062 346.059 111.599 346.49C111.14 346.918 110.508 347.131 109.702 347.131C109.268 347.131 108.89 347.067 108.568 346.937C108.249 346.804 107.986 346.623 107.779 346.396C107.573 346.165 107.419 345.905 107.317 345.618C107.219 345.327 107.17 345.024 107.17 344.709Z" fill="#FF7345"/>
<path d="M104.385 347V341.389H106.061V347H104.385ZM104.222 339.786C104.222 339.53 104.313 339.325 104.496 339.171C104.678 339.017 104.919 338.94 105.221 338.94C105.518 338.94 105.758 339.017 105.94 339.171C106.126 339.325 106.219 339.53 106.219 339.786C106.219 340.038 106.128 340.241 105.946 340.396C105.764 340.546 105.522 340.621 105.221 340.621C104.923 340.621 104.681 340.546 104.496 340.396C104.313 340.241 104.222 340.038 104.222 339.786Z" fill="#FF7345"/>
<path d="M99.73 347.084C99.1835 347.084 98.7369 346.933 98.3901 346.632C98.0469 346.327 97.8752 345.907 97.8752 345.371C97.8752 344.86 98.0469 344.452 98.3901 344.147C98.7369 343.839 99.2361 343.685 99.8876 343.685H101.196V343.217C101.196 342.989 101.126 342.818 100.986 342.702C100.846 342.587 100.656 342.529 100.418 342.529C100.261 342.529 100.128 342.553 100.019 342.602C99.9104 342.648 99.8245 342.713 99.7615 342.797C99.7019 342.881 99.6652 342.977 99.6511 343.086H98.0802C98.0907 342.861 98.1397 342.644 98.2273 342.434C98.3148 342.22 98.4497 342.03 98.6318 341.861C98.814 341.69 99.0539 341.555 99.3517 341.457C99.6494 341.355 100.014 341.305 100.445 341.305C100.889 341.305 101.292 341.368 101.653 341.494C102.017 341.62 102.306 341.826 102.52 342.114C102.737 342.401 102.846 342.786 102.846 343.27V347H101.275V346.312H101.196C101.133 346.438 101.038 346.56 100.912 346.68C100.79 346.799 100.63 346.897 100.434 346.974C100.241 347.047 100.007 347.084 99.73 347.084ZM100.308 345.912C100.466 345.912 100.611 345.881 100.744 345.818C100.881 345.751 100.989 345.662 101.07 345.55C101.154 345.434 101.196 345.301 101.196 345.151V344.604H100.329C100.066 344.604 99.8666 344.664 99.73 344.783C99.5934 344.902 99.525 345.056 99.525 345.245C99.525 345.469 99.6039 345.637 99.7615 345.75C99.9226 345.858 100.105 345.912 100.308 345.912Z" fill="#FF7345"/>
<path d="M92.1536 343.075C92.1536 342.644 92.2621 342.299 92.4793 342.04C92.7 341.777 92.989 341.586 93.3463 341.467C93.707 341.348 94.0958 341.289 94.5127 341.289C94.9435 341.289 95.3271 341.352 95.6633 341.478C95.9996 341.604 96.2623 341.793 96.4515 342.045C96.6441 342.294 96.7404 342.604 96.7404 342.975H95.2798C95.2693 342.874 95.2325 342.779 95.1694 342.692C95.1099 342.601 95.0241 342.527 94.912 342.471C94.7999 342.411 94.658 342.382 94.4864 342.382C94.2447 342.382 94.0591 342.434 93.9295 342.539C93.7999 342.644 93.7351 342.781 93.7351 342.949C93.7351 343.079 93.7841 343.184 93.8822 343.264C93.9803 343.341 94.1046 343.404 94.2552 343.453C94.4093 343.499 94.5722 343.536 94.7439 343.564C94.9155 343.588 95.0749 343.611 95.222 343.632C95.5653 343.688 95.8647 343.779 96.1205 343.905C96.3762 344.028 96.5741 344.196 96.7142 344.41C96.8578 344.623 96.9296 344.897 96.9296 345.229C96.9296 345.618 96.8315 345.953 96.6354 346.233C96.4392 346.513 96.1537 346.729 95.7789 346.879C95.4076 347.03 94.954 347.105 94.4181 347.105C93.9032 347.105 93.4689 347.033 93.1151 346.89C92.7613 346.743 92.4916 346.541 92.3059 346.285C92.1238 346.03 92.0327 345.736 92.0327 345.403H93.6562C93.6703 345.518 93.7105 345.622 93.7771 345.713C93.8436 345.804 93.9365 345.876 94.0556 345.928C94.1782 345.977 94.3253 346.002 94.4969 346.002C94.6896 346.002 94.8454 345.977 94.9645 345.928C95.0836 345.876 95.1712 345.806 95.2272 345.718C95.2833 345.627 95.3113 345.529 95.3113 345.424C95.3113 345.263 95.2448 345.144 95.1117 345.066C94.9785 344.986 94.8069 344.926 94.5967 344.888C94.3866 344.846 94.1642 344.802 93.9295 344.757C93.6037 344.693 93.306 344.601 93.0363 344.478C92.7665 344.355 92.5511 344.182 92.39 343.958C92.2324 343.734 92.1536 343.439 92.1536 343.075Z" fill="#FF7345"/>
<path d="M87.761 347.084C87.2145 347.084 86.7679 346.933 86.4212 346.632C86.0779 346.327 85.9062 345.907 85.9062 345.371C85.9062 344.86 86.0779 344.452 86.4212 344.147C86.7679 343.839 87.2671 343.685 87.9186 343.685H89.2269V343.217C89.2269 342.989 89.1568 342.818 89.0167 342.702C88.8766 342.587 88.6875 342.529 88.4493 342.529C88.2916 342.529 88.1585 342.553 88.0499 342.602C87.9414 342.648 87.8555 342.713 87.7925 342.797C87.7329 342.881 87.6962 342.977 87.6822 343.086H86.1112C86.1217 342.861 86.1707 342.644 86.2583 342.434C86.3458 342.22 86.4807 342.03 86.6628 341.861C86.845 341.69 87.0849 341.555 87.3827 341.457C87.6804 341.355 88.0447 341.305 88.4755 341.305C88.9204 341.305 89.3232 341.368 89.684 341.494C90.0483 341.62 90.3373 341.826 90.5509 342.114C90.7681 342.401 90.8767 342.786 90.8767 343.27V347H89.3057V346.312H89.2269C89.1638 346.438 89.0693 346.56 88.9432 346.68C88.8206 346.799 88.6612 346.897 88.465 346.974C88.2724 347.047 88.0377 347.084 87.761 347.084ZM88.3389 345.912C88.4966 345.912 88.6419 345.881 88.775 345.818C88.9116 345.751 89.0202 345.662 89.1008 345.55C89.1848 345.434 89.2269 345.301 89.2269 345.151V344.604H88.3599C88.0972 344.604 87.8976 344.664 87.761 344.783C87.6244 344.902 87.5561 345.056 87.5561 345.245C87.5561 345.469 87.6349 345.637 87.7925 345.75C87.9536 345.858 88.1358 345.912 88.3389 345.912Z" fill="#FF7345"/>
<path d="M81.3089 341.326C81.5716 341.326 81.8098 341.364 82.0235 341.441C82.2371 341.515 82.4175 341.621 82.5647 341.762C82.7153 341.902 82.8256 342.066 82.8957 342.255H82.9745V339.45H84.6558V347H82.9902V346.102H82.9114C82.8659 346.245 82.7941 346.377 82.696 346.496C82.5979 346.611 82.4771 346.711 82.3335 346.795C82.1934 346.879 82.0357 346.944 81.8606 346.989C81.6855 347.035 81.4981 347.058 81.2984 347.058C80.8816 347.058 80.519 346.96 80.2108 346.764C79.9025 346.564 79.6626 346.275 79.491 345.897C79.3228 345.518 79.2388 345.061 79.2388 344.525V343.853C79.2388 343.317 79.3246 342.861 79.4962 342.487C79.6679 342.112 79.9078 341.825 80.216 341.625C80.5278 341.425 80.8921 341.326 81.3089 341.326ZM81.9552 342.629C81.759 342.629 81.5856 342.679 81.435 342.781C81.2879 342.882 81.1723 343.033 81.0882 343.233C81.0077 343.432 80.9674 343.678 80.9674 343.968V344.42C80.9674 344.711 81.0077 344.958 81.0882 345.161C81.1723 345.361 81.2896 345.511 81.4403 345.613C81.5909 345.714 81.766 345.765 81.9657 345.765C82.1653 345.765 82.3405 345.714 82.4911 345.613C82.6417 345.511 82.7591 345.364 82.8431 345.172C82.9307 344.975 82.9745 344.737 82.9745 344.457V343.895C82.9745 343.625 82.9307 343.396 82.8431 343.206C82.7556 343.017 82.6347 342.874 82.4806 342.776C82.3265 342.678 82.1513 342.629 81.9552 342.629Z" fill="#FF7345"/>
<path d="M77.9777 341.389V347H76.3542V346.059H76.2701C76.2211 346.207 76.13 346.359 75.9969 346.517C75.8638 346.674 75.6852 346.809 75.461 346.921C75.2368 347.03 74.9601 347.084 74.6308 347.084C74.2595 347.084 73.9338 347.016 73.6536 346.879C73.3768 346.739 73.1614 346.525 73.0073 346.238C72.8532 345.947 72.7761 345.578 72.7761 345.13V341.389H74.4522V344.699C74.4522 344.968 74.496 345.177 74.5836 345.324C74.6711 345.468 74.7815 345.567 74.9146 345.623C75.0512 345.676 75.1895 345.702 75.3296 345.702C75.5048 345.702 75.6659 345.662 75.813 345.581C75.9601 345.497 76.0792 345.376 76.1703 345.219C76.2614 345.061 76.3069 344.872 76.3069 344.651V341.389H77.9777Z" fill="#FF7345"/>
<path d="M71.9565 339.828L69.4661 342.939L72.0511 347H70.0125L68.2051 344.079L67.5641 344.83V347H65.8354V339.828H67.5641V342.886H67.6376L70.1071 339.828H71.9565Z" fill="#FF7345"/>
<path d="M171.844 342.077H175.219C174.526 341.555 173.905 340.97 173.491 340.412C173.104 340.961 172.528 341.546 171.844 342.077ZM171.403 343.058V342.401C170.926 342.743 170.404 343.049 169.882 343.301C169.756 343.04 169.477 342.635 169.252 342.401C170.782 341.726 172.213 340.448 172.888 339.386H174.004C174.958 340.709 176.389 341.735 177.811 342.239C177.541 342.518 177.307 342.905 177.118 343.22C176.623 342.986 176.101 342.689 175.606 342.347V343.058H171.403ZM169.81 344.795V343.805H177.253V344.795H173.221C172.96 345.326 172.663 345.884 172.393 346.388C173.257 346.361 174.184 346.325 175.102 346.289C174.823 345.965 174.517 345.641 174.22 345.371L175.165 344.876C175.966 345.578 176.803 346.514 177.226 347.189L176.227 347.792C176.137 347.621 176.011 347.432 175.867 347.234C173.752 347.351 171.529 347.441 169.999 347.513L169.855 346.469L171.214 346.424C171.457 345.92 171.709 345.326 171.898 344.795H169.81Z" fill="#FF7345"/>
<path d="M162.88 344.84H164.437V343.472H162.88V344.84ZM168.622 344.84V345.866H165.544V347.792H164.437V345.866H160.387V344.84H161.809V342.473H164.437V341.402H162.511C162.142 342.041 161.71 342.617 161.287 343.04C161.08 342.86 160.621 342.5 160.36 342.347C161.17 341.663 161.863 340.511 162.25 339.35L163.339 339.629C163.258 339.881 163.159 340.124 163.042 340.367H168.127V341.402H165.544V342.473H167.92V343.472H165.544V344.84H168.622Z" fill="#FF7345"/>
<path d="M152.593 342.293V341.393H151.576V340.403H154.951V339.377H156.013V340.403H159.442V341.393H153.664V342.32C153.664 342.644 153.772 342.77 154.294 342.77H157.228C157.705 342.77 158.389 342.743 158.731 342.68C158.749 342.968 158.803 343.4 158.848 343.661C158.587 343.724 157.867 343.742 157.291 343.742H155.149C155.716 344.057 156.355 344.516 156.67 344.885L155.896 345.605C155.581 345.2 154.852 344.642 154.231 344.291L154.852 343.742H154.393C153.061 343.742 152.593 343.409 152.593 342.293ZM152.116 347.387L151.216 346.802C151.774 346.325 152.134 345.56 152.314 344.75L153.268 345.047C153.061 345.92 152.737 346.811 152.116 347.387ZM155.158 346.703H156.391C156.751 346.703 156.823 346.577 156.859 345.722C157.075 345.884 157.525 346.046 157.813 346.109C157.696 347.351 157.399 347.657 156.49 347.657H155.041C153.889 347.657 153.601 347.36 153.601 346.415V344.831H154.663V346.406C154.663 346.667 154.735 346.703 155.158 346.703ZM157.336 345.083L158.254 344.651C158.848 345.29 159.478 346.181 159.703 346.829L158.713 347.315C158.524 346.685 157.93 345.758 157.336 345.083Z" fill="#FF7345"/>
</g>
<defs>
<linearGradient id="paint0_linear_1_2954" x1="141.055" y1="106.047" x2="240.915" y2="146.633" gradientUnits="userSpaceOnUse">
<stop stop-color="#F56420"/>
<stop offset="1" stop-color="#FF9C5A"/>
</linearGradient>
<linearGradient id="paint1_linear_1_2954" x1="11.3115" y1="386.339" x2="11.3115" y2="334.479" gradientUnits="userSpaceOnUse">
<stop stop-color="#F56420"/>
<stop offset="1" stop-color="#FF9C5A"/>
</linearGradient>
<linearGradient id="paint2_linear_1_2954" x1="186.312" y1="58.3389" x2="186.312" y2="6.47874" gradientUnits="userSpaceOnUse">
<stop stop-color="#F56420"/>
<stop offset="1" stop-color="#FF9C5A"/>
</linearGradient>
<linearGradient id="paint3_linear_1_2954" x1="86.3055" y1="27.5806" x2="112.236" y2="-17.3316" gradientUnits="userSpaceOnUse">
<stop stop-color="#F56420"/>
<stop offset="1" stop-color="#FF9C5A"/>
</linearGradient>
<linearGradient id="paint4_linear_1_2954" x1="-71.8879" y1="187.906" x2="32.2319" y2="160.007" gradientUnits="userSpaceOnUse">
<stop stop-color="#F56420"/>
<stop offset="1" stop-color="#FF9C5A"/>
</linearGradient>
<linearGradient id="paint5_linear_1_2954" x1="173.63" y1="296.18" x2="247.778" y2="374.418" gradientUnits="userSpaceOnUse">
<stop stop-color="#F56420"/>
<stop offset="1" stop-color="#FF9C5A"/>
</linearGradient>
<linearGradient id="paint6_linear_1_2954" x1="12.2962" y1="-14.5836" x2="25.7563" y2="35.6501" gradientUnits="userSpaceOnUse">
<stop stop-color="#F56420"/>
<stop offset="1" stop-color="#FF9C5A"/>
</linearGradient>
<linearGradient id="paint7_linear_1_2954" x1="11.1726" y1="354.239" x2="-8.58971" y2="305.251" gradientUnits="userSpaceOnUse">
<stop stop-color="#F56420"/>
<stop offset="1" stop-color="#FF9C5A"/>
</linearGradient>
<linearGradient id="paint8_linear_1_2954" x1="185.222" y1="40.0522" x2="219.258" y2="-0.34581" gradientUnits="userSpaceOnUse">
<stop stop-color="#F56420"/>
<stop offset="1" stop-color="#FF9C5A"/>
</linearGradient>
<clipPath id="clip0_1_2954">
<rect width="220" height="364" fill="white"/>
</clipPath>
<clipPath id="clip1_1_2954">
<rect width="113.581" height="113.581" fill="white" transform="translate(121 159.222) rotate(-67.8815)"/>
</clipPath>
<clipPath id="clip2_1_2954">
<rect width="54.645" height="54.6451" fill="white" transform="translate(38.645 385.645) rotate(180)"/>
</clipPath>
<clipPath id="clip3_1_2954">
<rect width="54.645" height="54.6451" fill="white" transform="translate(213.645 57.645) rotate(180)"/>
</clipPath>
<clipPath id="clip4_1_2954">
<rect width="54.645" height="54.6451" fill="white" transform="translate(110.324 40.6465) rotate(-150)"/>
</clipPath>
<clipPath id="clip5_1_2954">
<rect width="54.7985" height="54.7985" fill="white" transform="translate(-14 -6.81714) rotate(-15)"/>
</clipPath>
<clipPath id="clip6_1_2954">
<rect width="17" height="18.9966" fill="white" transform="translate(43 331)"/>
</clipPath>
</defs>
</svg>
